<?xml version="1.0" encoding="utf-8"?>
<svg xmlns="http://www.w3.org/2000/svg" viewBox="0 0 128 128">
  <path fill="#3ac7e8" d="M64 128C28.7 128 0 99.3 0 64S28.7 0 64 0s64 28.7 64 64-28.7 64-64 64zm30.3-79.9c-2.1.9-4.4 1.6-6.8 1.9 2.4-1.5 4.3-3.8 5.2-6.5-2.3 1.4-4.8 2.3-7.5 2.9-2.2-2.4-5.2-3.9-8.6-3.9-6.5 0-11.8 5.3-11.8 11.8 0 .9.1 1.8.3 2.7-9.8-.5-18.5-5.2-24.3-12.3-1 1.7-1.6 3.8-1.6 5.9 0 4.1 2.1 7.7 5.2 9.8-1.9-.1-3.8-.6-5.3-1.5v.1c0 5.7 4.1 10.5 9.5 11.6-1 .3-2 .4-3.1.4-.8 0-1.5-.1-2.2-.2 1.5 4.7 5.9 8.1 11 8.2-4 3.2-9.1 5-14.7 5-1 0-1.9-.1-2.8-.2 5.2 3.3 11.4 5.3 18.1 5.3 21.7 0 33.6-18 33.6-33.6V54c2.2-1.5 4.2-3.6 5.8-5.9z"/>
</svg>