<?xml version="1.0" encoding="utf-8"?>
<!-- Generator: Adobe Illustrator 18.0.0, SVG Export Plug-In . SVG Version: 6.00 Build 0)  -->
<!DOCTYPE svg PUBLIC "-//W3C//DTD SVG 1.1//EN" "http://www.w3.org/Graphics/SVG/1.1/DTD/svg11.dtd">
<svg version="1.1" id="Calque_2" xmlns="http://www.w3.org/2000/svg" xmlns:xlink="http://www.w3.org/1999/xlink" x="0px" y="0px"
	 viewBox="0 0 500 500" enable-background="new 0 0 500 500" xml:space="preserve">
<g>
	
		<rect x="205.5" y="173.8" transform="matrix(-0.9657 -0.2598 0.2598 -0.9657 347.6922 721.8632)" fill="#0F1324" width="32" height="328.2"/>
	<path fill="#0F1324" d="M246.4,205c0,0-6.7-32.2-35.4-54.2s-8.5-30.9-3.2-38.4c5.2-7.5,32.9-41.7,36.1-57.3
		c3.1-15.6,2.6-37.4,8.9-37.9s11.8,14.7,10.8,29c-1.1,14.3-18,48.1-27.5,63.5s-9.8,31-9.8,31l41.6,45.9"/>
	<g>
		<g>
			
				<rect x="268.5" y="1.7" transform="matrix(-0.9113 0.4118 -0.4118 -0.9113 521.2598 -102.2703)" fill="#5B2676" width="6.4" height="6.5"/>
			
				<rect x="277.1" y="5" transform="matrix(-0.9112 0.4119 -0.4119 -0.9112 538.9948 -99.6743)" fill="#5B2676" width="6.4" height="6.5"/>
			
				<rect x="285.7" y="8.3" transform="matrix(-0.9113 0.4118 -0.4118 -0.9113 556.8925 -96.8618)" fill="#5B2676" width="6.4" height="6.5"/>
			
				<rect x="294.3" y="11.5" transform="matrix(-0.9113 0.4117 -0.4117 -0.9113 574.6635 -94.1884)" fill="#5B2676" width="6.4" height="6.5"/>
			
				<rect x="302.9" y="14.8" transform="matrix(-0.9113 0.4118 -0.4118 -0.9113 592.4305 -91.5808)" fill="#5B2676" width="6.4" height="6.5"/>
			
				<rect x="311.6" y="18" transform="matrix(-0.9112 0.4119 -0.4119 -0.9112 610.2902 -89.0902)" fill="#5B2676" width="6.4" height="6.5"/>
			
				<rect x="320.2" y="21.3" transform="matrix(-0.9113 0.4118 -0.4118 -0.9113 628.1937 -86.2679)" fill="#5B2676" width="6.4" height="6.5"/>
			
				<rect x="328.8" y="24.5" transform="matrix(-0.9113 0.4118 -0.4118 -0.9113 645.9624 -83.6279)" fill="#5B2676" width="6.4" height="6.5"/>
			<g>
				
					<rect x="265.3" y="10.2" transform="matrix(-0.4117 -0.9113 0.9113 -0.4117 366.6509 263.7257)" fill="#5B2676" width="6.4" height="6.5"/>
				
					<rect x="262" y="18.9" transform="matrix(-0.4118 -0.9113 0.9113 -0.4118 354.2324 272.9675)" fill="#5B2676" width="6.4" height="6.5"/>
				
					<rect x="258.8" y="27.5" transform="matrix(-0.4118 -0.9113 0.9113 -0.4118 341.7981 282.2145)" fill="#5B2676" width="6.4" height="6.5"/>
				
					<rect x="255.5" y="36.1" transform="matrix(-0.4118 -0.9113 0.9113 -0.4118 329.38 291.3219)" fill="#5B2676" width="6.4" height="6.5"/>
				
					<rect x="252.3" y="44.7" transform="matrix(-0.4118 -0.9113 0.9113 -0.4118 316.94 300.5663)" fill="#5B2676" width="6.4" height="6.5"/>
				
					<rect x="249.1" y="53.4" transform="matrix(-0.4118 -0.9113 0.9113 -0.4118 304.5013 309.8115)" fill="#5B2676" width="6.4" height="6.5"/>
			</g>
			<g>
				
					<rect x="325.6" y="33" transform="matrix(-0.4118 -0.9113 0.9113 -0.4118 431.0772 350.8888)" fill="#5B2676" width="6.4" height="6.5"/>
				
					<rect x="322.4" y="41.7" transform="matrix(-0.4118 -0.9113 0.9113 -0.4118 418.6559 360.1408)" fill="#5B2676" width="6.4" height="6.5"/>
				
					<rect x="319.1" y="50.2" transform="matrix(-0.4118 -0.9113 0.9113 -0.4118 406.2287 369.2438)" fill="#5B2676" width="6.4" height="6.5"/>
				
					<rect x="315.9" y="58.9" transform="matrix(-0.4118 -0.9113 0.9113 -0.4118 393.7848 378.4849)" fill="#5B2676" width="6.4" height="6.5"/>
				
					<rect x="312.6" y="67.5" transform="matrix(-0.4118 -0.9113 0.9113 -0.4118 381.3444 387.7281)" fill="#5B2676" width="6.4" height="6.5"/>
				
					<rect x="309.3" y="76.1" transform="matrix(-0.4118 -0.9113 0.9113 -0.4118 368.7887 396.8142)" fill="#5B2676" width="6.4" height="6.5"/>
			</g>
			
				<rect x="245.7" y="62.1" transform="matrix(-0.9113 0.4118 -0.4118 -0.9113 502.6149 22.4385)" fill="#5B2676" width="6.4" height="6.5"/>
			
				<rect x="254.3" y="65.3" transform="matrix(-0.9113 0.4118 -0.4118 -0.9113 520.3837 25.072)" fill="#5B2676" width="6.4" height="6.5"/>
			
				<rect x="262.9" y="68.6" transform="matrix(-0.9113 0.4118 -0.4118 -0.9113 538.1523 27.7075)" fill="#5B2676" width="6.4" height="6.5"/>
			
				<rect x="271.5" y="71.8" transform="matrix(-0.9113 0.4118 -0.4118 -0.9113 555.9205 30.3385)" fill="#5B2676" width="6.4" height="6.5"/>
			
				<rect x="280.1" y="75.1" transform="matrix(-0.9113 0.4118 -0.4118 -0.9113 573.7866 33.1307)" fill="#5B2676" width="6.4" height="6.5"/>
			
				<rect x="288.7" y="78.3" transform="matrix(-0.9113 0.4118 -0.4118 -0.9113 591.5547 35.7617)" fill="#5B2676" width="6.4" height="6.5"/>
			
				<rect x="297.4" y="81.5" transform="matrix(-0.9113 0.4118 -0.4118 -0.9113 609.4541 38.3139)" fill="#5B2676" width="6.4" height="6.5"/>
			
				<rect x="306" y="84.8" transform="matrix(-0.9113 0.4118 -0.4118 -0.9113 627.3176 41.065)" fill="#5B2676" width="6.4" height="6.5"/>
			
				<rect x="258.3" y="14.3" transform="matrix(-0.9355 -0.3532 0.3532 -0.9355 545.9581 192.9462)" fill="#5B2676" width="64.6" height="64.6"/>
		</g>
		<circle fill="none" stroke="#FFFFFF" stroke-width="4" stroke-miterlimit="10" cx="290.6" cy="46.5" r="24.8"/>
	</g>
	<path fill="#0F1324" d="M242.5,97.4c-11.1,14.6-17.3,23.3-4.9,22.3c12.4-0.9,15-14.6,14.2-24.8c-0.8-10.3-3.8-40.4,9.5-43.2
		c13.2-2.9,15.8,21,13.2,37.2c-2.6,16.1-3,21.7,9.6,46.6c12.7,24.8-5,81.2-18.4,85.5c-13.3,4.3-14.1-27.4-14.1-27.4L219.3,149
		l6.7-40.7L242.5,97.4z"/>
</g>
</svg>
