<?xml version="1.0" encoding="utf-8"?>
<!-- Generator: Adobe Illustrator 18.0.0, SVG Export Plug-In . SVG Version: 6.00 Build 0)  -->
<!DOCTYPE svg PUBLIC "-//W3C//DTD SVG 1.1//EN" "http://www.w3.org/Graphics/SVG/1.1/DTD/svg11.dtd">
<svg version="1.1" id="Calque_1" xmlns="http://www.w3.org/2000/svg" xmlns:xlink="http://www.w3.org/1999/xlink" x="0px" y="0px"
	 viewBox="0 0 500 500" enable-background="new 0 0 500 500" xml:space="preserve">
<polygon fill="#0F1324" points="130.1,486.6 163.4,499.3 261.7,237 228.4,224.3 "/>
<g>
	<g>
		<polygon fill="#5B2676" points="364.1,45.2 365,52.4 372.2,51.4 371.4,44.2 		"/>
		<polygon fill="#5B2676" points="355.9,38.9 356.8,46.1 364.1,45.1 363.2,37.9 		"/>
		<polygon fill="#5B2676" points="347.9,32.6 348.8,39.8 356,38.8 355.1,31.6 		"/>
		<polygon fill="#5B2676" points="339.7,26.3 340.6,33.5 347.9,32.5 347,25.3 		"/>
		<polygon fill="#5B2676" points="331.6,20 332.5,27.2 339.8,26.1 338.8,18.9 		"/>
		<polygon fill="#5B2676" points="323.5,13.7 324.4,20.9 331.6,19.8 330.8,12.6 		"/>
		<polygon fill="#5B2676" points="315.3,7.3 316.3,14.6 323.6,13.5 322.6,6.3 		"/>
		<polygon fill="#5B2676" points="307.3,1 308.1,8.3 315.4,7.2 314.5,0 		"/>
		<g>
			<polygon fill="#5B2676" points="358.9,60.9 365.9,59.8 365.1,52.4 357.9,53.5 			"/>
			<polygon fill="#5B2676" points="352.6,69.2 359.7,68.2 358.7,60.8 351.7,61.8 			"/>
			<polygon fill="#5B2676" points="346.3,77.6 353.4,76.6 352.5,69.2 345.4,70.2 			"/>
			<polygon fill="#5B2676" points="340.1,86 347.1,85 346.2,77.6 339.1,78.6 			"/>
			<polygon fill="#5B2676" points="333.8,94.4 340.9,93.4 339.9,86 332.9,87 			"/>
			<polygon fill="#5B2676" points="327.5,102.8 334.6,101.8 333.7,94.3 326.6,95.4 			"/>
		</g>
		<g>
			<polygon fill="#5B2676" points="302.1,16.7 309.1,15.6 308.2,8.2 301.2,9.3 			"/>
			<polygon fill="#5B2676" points="295.8,25 302.9,24 301.9,16.6 294.9,17.6 			"/>
			<polygon fill="#5B2676" points="289.6,33.4 296.6,32.4 295.7,25 288.6,26 			"/>
			<polygon fill="#5B2676" points="283.3,41.9 290.3,40.8 289.4,33.4 282.3,34.4 			"/>
			<polygon fill="#5B2676" points="277,50.2 284.1,49.2 283.1,41.8 276.1,42.8 			"/>
			<polygon fill="#5B2676" points="270.7,58.6 277.8,57.6 276.9,50.1 269.8,51.2 			"/>
		</g>
		<polygon fill="#5B2676" points="320.2,104 321.1,111.2 328.3,110.1 327.5,102.9 		"/>
		<polygon fill="#5B2676" points="312,97.7 313,104.8 320.3,103.8 319.3,96.6 		"/>
		<polygon fill="#5B2676" points="304,91.3 304.8,98.5 312.1,97.5 311.2,90.3 		"/>
		<polygon fill="#5B2676" points="295.8,85 296.8,92.2 304,91.2 303.1,84 		"/>
		<polygon fill="#5B2676" points="287.7,78.7 288.6,85.9 295.9,84.9 295,77.7 		"/>
		<polygon fill="#5B2676" points="279.6,72.4 280.5,79.6 287.8,78.6 286.9,71.4 		"/>
		<polygon fill="#5B2676" points="271.5,66.1 272.4,73.3 279.7,72.2 278.8,65.1 		"/>
		<polygon fill="#5B2676" points="263.4,59.8 264.3,67 271.5,65.9 270.6,58.7 		"/>
		<polygon fill="#5B2676" points="267.3,62.8 324.2,107 368.1,48.2 311.2,3.9 		"/>
	</g>
	<path fill="none" stroke="#FFFFFF" stroke-width="4" stroke-miterlimit="10" d="M339.6,72.5c-9.3,12.5-26.7,15-38.8,5.6
		c-12-9.4-14.3-27.1-5-39.6s26.7-15,38.8-5.6C346.7,42.2,349,60,339.6,72.5z"/>
</g>
<path fill="#0F1324" d="M249.3,257.4l48.1-47.1c0,0-5.2-50.4,23.3-79.2s24.9-25.8,13.4-28.9c-11.5-3.1-35.6,5.3-38.5,26.4
	c0,0-1.6,28-23.3,21.7c-21.7-6.3-34.9-40.7-25.6-63.9s22-21.6,30.2-34.8s9.8-26.3-5.9-19.8s-36.4,25.3-42,49.9
	c-5.6,24.6-12.9,52.6-18.5,59c0,0,22.3,79.1,14.3,107.4L249.3,257.4z"/>
<path fill="#0F1324" d="M227.7,196.6c-6.6-24.7-26.4-58.4-34.7-61.5c0,0,9.3-38.3,8-51.8c-1.2-13.5,24.3-46.2,32.8-46.8
	c8.5-0.7-0.2,26-12.6,40.2s-2.5,50.6-2.5,50.6l10.2,20.2L227.7,196.6z"/>
<path fill="#0F1324" d="M220.7,179.9c-8.5-24.8-38.6-41.1-44.5-44c0,0-14-40.5-18.1-49.9c-4.1-9.4,3.2-8.6,11.8-2.6
	c8.6,5.9,15.9,23.6,12.3,34.7l35.3,22.6l4.3,14L220.7,179.9z"/>
</svg>
