<?xml version="1.0" encoding="utf-8"?>
<!-- Generator: Adobe Illustrator 18.0.0, SVG Export Plug-In . SVG Version: 6.00 Build 0)  -->
<!DOCTYPE svg PUBLIC "-//W3C//DTD SVG 1.1//EN" "http://www.w3.org/Graphics/SVG/1.1/DTD/svg11.dtd">
<svg version="1.1" id="Calque_1" xmlns="http://www.w3.org/2000/svg" xmlns:xlink="http://www.w3.org/1999/xlink" x="0px" y="0px"
	 viewBox="0 0 1200 1200" enable-background="new 0 0 1200 1200" xml:space="preserve">
<g>
	<g>
		<path fill="#63027C" d="M414.5,336.6l-117.6,11.7L246,807.2L137.4,818l50.8-458.8L70.7,370.8L80.7,280l343.8-34.2L414.5,336.6z"/>
		<path fill="#63027C" d="M530.6,614.4c-1.5,13.9-2.1,26.5-1.6,37.8c0.5,11.4,2.6,21.1,6.5,29c3.8,8,9.6,14,17.4,18.1
			c7.8,4.1,17.9,5.5,30.5,4.2c13.1-1.3,23.9-4.8,32.5-10.5c8.6-5.7,15.7-13,21.4-21.9c5.7-8.9,10.1-19.3,13.1-31
			c3-11.7,5.3-24.5,6.9-38.4l42.5-383.4l108.6-10.8L765.8,591c-3.9,34.9-11.8,64.3-23.9,88c-12.1,23.8-26.9,43.2-44.5,58.1
			c-17.6,15-36.9,25.7-58,32.4c-21.1,6.7-42.7,11.1-64.9,13.3c-22.1,2.2-43.2,2.3-63.4,0.2c-20.2-2-37.6-8.6-52.3-19.5
			c-14.7-11-25.5-27.5-32.5-49.7c-7-22.2-8.4-51.7-4.3-88.7l42.5-383.4L573,231L530.6,614.4z"/>
		<path fill="#63027C" d="M1066.9,181.9c27.6-2.8,50.4-0.3,68.2,7.3c17.8,7.6,31.6,18.6,41.5,32.8c9.9,14.2,16.2,31,19,50.3
			c2.8,19.3,3.1,39.2,0.9,59.7c-3.1,28.2-10,53.3-20.6,75.1c-10.6,21.9-24.1,40.2-40.4,55c-16.3,14.8-35.4,26.6-57.2,35.4
			c-21.8,8.8-45.6,14.4-71.2,17l-58.1,5.8l-24.3,219.4L816,750.5l60.9-549.7L1066.9,181.9z M1006.1,433.9
			c21.6-2.1,39.8-10.5,54.6-25.2c14.8-14.7,23.8-36.1,26.9-64.3c3.1-27.7-0.4-48.2-10.3-61.4c-10-13.2-28.5-18.5-55.7-15.8
			l-45.2,4.5l-18.5,167.1L1006.1,433.9z"/>
	</g>
	<g>
		<path fill="#FFFFFF" d="M364.2,284.2l-117.6,11.7l-50.8,458.8L87.2,765.5l50.8-458.8L20.5,318.4l10.1-90.8l343.8-34.2L364.2,284.2
			z"/>
		<path fill="#FFFFFF" d="M480.4,562c-1.5,13.9-2.1,26.5-1.6,37.8c0.5,11.4,2.6,21.1,6.5,29c3.8,8,9.6,14,17.4,18.1
			c7.8,4.1,17.9,5.5,30.5,4.2c13.1-1.3,23.9-4.8,32.5-10.5c8.6-5.7,15.7-13,21.4-21.9c5.7-8.9,10.1-19.3,13.1-31
			c3-11.7,5.3-24.5,6.9-38.4L649.5,166l108.6-10.8l-42.5,383.4c-3.9,34.9-11.8,64.3-23.9,88c-12.1,23.8-26.9,43.2-44.5,58.1
			c-17.6,15-36.9,25.7-58,32.4c-21.1,6.7-42.7,11.1-64.9,13.3c-22.1,2.2-43.2,2.3-63.4,0.2c-20.2-2-37.6-8.6-52.3-19.5
			c-14.7-11-25.5-27.5-32.5-49.7c-7-22.2-8.4-51.7-4.3-88.7l42.5-383.4l108.6-10.8L480.4,562z"/>
		<path fill="#FFFFFF" d="M1016.6,129.5c27.6-2.8,50.4-0.3,68.2,7.3c17.8,7.6,31.6,18.6,41.5,32.8c9.9,14.2,16.2,31,19,50.3
			c2.8,19.3,3.1,39.2,0.9,59.7c-3.1,28.2-10,53.3-20.6,75.1c-10.6,21.9-24.1,40.2-40.4,55c-16.3,14.8-35.4,26.6-57.2,35.4
			c-21.8,8.8-45.6,14.4-71.2,17l-58.1,5.8l-24.3,219.4l-108.6,10.8l60.9-549.7L1016.6,129.5z M955.9,381.5
			c21.6-2.1,39.8-10.5,54.6-25.2c14.8-14.7,23.8-36.1,26.9-64.3c3.1-27.7-0.4-48.2-10.3-61.4c-10-13.2-28.5-18.5-55.7-15.8
			l-45.2,4.5l-18.5,167.1L955.9,381.5z"/>
	</g>
</g>
<g>
	<polygon fill="#63027C" points="1142.5,933.6 10.3,1043.4 27.7,886 1159.9,776.2 	"/>
	<g>
		<path fill="#FFFFFF" d="M134.6,921.3l-1.2,10.8l-14.4,1.4l-6,54.5l-13.3,1.3l6-54.5l-14.4,1.4l1.2-10.8L134.6,921.3z"/>
		<path fill="#FFFFFF" d="M141.3,920.6l24.6-2.4c10.9-1.1,17,4,15.7,15.1c-1,8.7-5.1,14.9-12.8,17.2l0,0.2c8.9,0.3,9.8,5.1,8.4,18.9
			c-0.7,6.9-0.7,10.4,1.7,11.4l-0.1,0.5l-14.4,1.4c-1.1-1.7-1.1-4.1-0.9-6.7l1-12.5c0.4-5.1-1.6-8-7-7.5l-7.1,0.7l-3,27.6l-13.3,1.3
			L141.3,920.6z M151.4,947.9l5.6-0.5c6.4-0.6,10.3-3.7,11.1-10.8c0.7-6-2.2-8.7-8.2-8.2l-6.3,0.6L151.4,947.9z"/>
		<path fill="#FFFFFF" d="M214.9,912.2c20-1.9,20.9,11.9,18.7,31.8c-2.2,19.9-6.2,34.2-26.2,36.1c-20,1.9-20.9-11.9-18.7-31.8
			C190.8,928.5,194.9,914.1,214.9,912.2z M208.4,970.4c7.9-0.8,9.9-7.6,11.8-25.1c1.9-17.5,1.4-24.1-6.5-23.4
			c-7.9,0.8-9.9,7.7-11.8,25.1C200,964.6,200.6,971.2,208.4,970.4z"/>
		<path fill="#FFFFFF" d="M258.5,909.2l-5,45.6c-0.7,6.5,0.3,11.2,6.5,10.6c6.2-0.6,8.3-5.6,9-12.1l5-45.6l13.3-1.3l-5,45.6
			c-1.8,16.7-12.6,22-23.4,23.1c-10.8,1-20.7-1.5-18.8-19l5-45.6L258.5,909.2z"/>
		<path fill="#FFFFFF" d="M306.6,904.6l4,47.4l0.3,0l15.1-49.3l13.8-1.3l-22.4,66.8l-17.1,1.7l-8-63.9L306.6,904.6z"/>
		<path fill="#FFFFFF" d="M382.5,897.2l-1.2,10.8l-23.6,2.3l-1.7,15.4l22.2-2.2l-1.2,10.8l-22.2,2.2l-1.9,17.6l24.5-2.4l-1.2,10.8
			l-37.8,3.7l7.2-65.3L382.5,897.2z"/>
		<path fill="#FFFFFF" d="M391,896.4l24.6-2.4c10.9-1.1,17,4,15.7,15.1c-1,8.7-5.1,14.9-12.8,17.2l0,0.2c8.9,0.3,9.8,5.1,8.4,18.9
			c-0.7,6.9-0.7,10.4,1.7,11.4l-0.1,0.5l-14.4,1.4c-1.1-1.7-1.1-4.1-0.9-6.7l1-12.5c0.4-5.1-1.6-8-7-7.5l-7.1,0.7l-3,27.6l-13.3,1.3
			L391,896.4z M401.2,923.7l5.5-0.5c6.4-0.6,10.3-3.7,11.1-10.8c0.7-6-2.2-8.7-8.3-8.2l-6.3,0.6L401.2,923.7z"/>
		<path fill="#FFFFFF" d="M479,887.9l-5,45.6c-0.7,6.5,0.3,11.2,6.5,10.6c6.2-0.6,8.3-5.6,9-12.1l5-45.6l13.3-1.3l-5,45.6
			c-1.8,16.7-12.6,22-23.4,23.1c-10.8,1-20.7-1.5-18.8-19l5-45.6L479,887.9z"/>
		<path fill="#FFFFFF" d="M532.6,882.7l11.2,43.2l0.2,0l4.9-44.8l12.2-1.2l-7.2,65.3l-15.2,1.5l-11.2-44.2l-0.2,0l-5.1,45.8
			l-12.2,1.2l7.2-65.3L532.6,882.7z"/>
		<path fill="#FFFFFF" d="M594.4,876.7l23.3-2.3c13.5-1.3,17,8,16,17.8c-1.5,13.5-10.6,20.5-23.2,21.7l-7.1,0.7l-2.9,26.1l-13.3,1.3
			L594.4,876.7z M604.4,904.9l5.9-0.6c5.3-0.5,9.2-4,10-10.7c0.7-6.4-1.5-9.8-8.1-9.2l-5.5,0.5L604.4,904.9z"/>
		<path fill="#FFFFFF" d="M643.3,871.9l24.6-2.4c10.9-1.1,17,4,15.7,15.1c-1,8.7-5.1,14.9-12.8,17.2l0,0.2c8.9,0.3,9.8,5.1,8.4,18.9
			c-0.7,6.9-0.7,10.4,1.7,11.4l-0.1,0.5l-14.4,1.4c-1.1-1.7-1.1-4.1-0.9-6.7l1-12.5c0.4-5.1-1.6-8-7-7.5l-7.1,0.7l-3.1,27.6
			l-13.3,1.3L643.3,871.9z M653.5,899.2l5.5-0.5c6.4-0.6,10.3-3.7,11.1-10.8c0.7-6-2.2-8.7-8.3-8.2l-6.3,0.6L653.5,899.2z"/>
		<path fill="#FFFFFF" d="M732.6,863.3l-1.2,10.8l-23.6,2.3l-1.7,15.4l22.2-2.2l-1.2,10.8l-22.2,2.2l-1.9,17.6l24.5-2.4l-1.2,10.8
			l-37.8,3.7l7.2-65.3L732.6,863.3z M715.3,848.1l12.8-1.2l-10.5,14.1l-8.7,0.8L715.3,848.1z"/>
		<path fill="#FFFFFF" d="M746.9,906.3l-0.2,1.9c-0.7,6.1,0.6,9.9,7.7,9.2c4.1-0.4,8.2-3.3,8.8-8.8c0.7-6-2.2-7.9-10.6-10
			c-11.4-2.9-16.3-7.2-15.1-18.1c1.4-12.7,10-20,22.6-21.2c11.8-1.1,19.9,3.1,18.5,15.6l-0.2,1.8l-12.8,1.2c0.7-6.1-1.1-9.5-6.1-9
			c-6,0.6-8,4.5-8.4,8.3c-0.4,4,0.5,6.4,5.9,8.2l9.8,3.4c9.5,3.3,11.6,8.1,10.7,16.1c-1.5,13.8-10.7,20.9-25.2,22.3
			c-15.1,1.5-20.2-4.9-18.9-17l0.3-2.7L746.9,906.3z"/>
		<path fill="#FFFFFF" d="M826.9,854.1l-1.2,10.8l-23.6,2.3l-1.7,15.4l22.2-2.2l-1.2,10.8l-22.2,2.2l-1.9,17.6l24.5-2.4l-1.2,10.8
			l-37.8,3.7l7.2-65.3L826.9,854.1z"/>
		<path fill="#FFFFFF" d="M835.4,853.3l24.6-2.4c10.9-1.1,17,4,15.7,15.1c-1,8.7-5.1,14.9-12.8,17.2l0,0.2c8.9,0.3,9.8,5.1,8.4,18.9
			c-0.7,6.9-0.7,10.4,1.7,11.4l-0.1,0.5l-14.4,1.4c-1.1-1.7-1.1-4.1-0.9-6.7l1-12.5c0.4-5.1-1.6-8-7-7.5l-7.1,0.7l-3.1,27.6
			l-13.3,1.3L835.4,853.3z M845.6,880.5l5.5-0.5c6.4-0.6,10.3-3.7,11.1-10.8c0.7-6-2.2-8.7-8.3-8.2l-6.3,0.6L845.6,880.5z"/>
		<path fill="#FFFFFF" d="M897.7,847.2l4,47.4l0.3,0l15.1-49.3l13.8-1.3l-22.4,66.8l-17.1,1.7l-8-63.9L897.7,847.2z"/>
		<path fill="#FFFFFF" d="M946.2,842.5l16.5-1.6l10.3,63.7l-13.9,1.3l-1.5-13.5l-17.6,1.7l-4.6,14.1l-13.9,1.3L946.2,842.5z
			 M943.4,883.1l13-1.3l-3.1-28.8l-0.2,0L943.4,883.1z"/>
		<path fill="#FFFFFF" d="M1019.3,835.4l-1.2,10.8l-14.4,1.4l-6,54.5l-13.3,1.3l6-54.5l-14.4,1.4l1.2-10.8L1019.3,835.4z"/>
		<path fill="#FFFFFF" d="M1019.4,900.1l7.2-65.3l13.3-1.3l-7.2,65.3L1019.4,900.1z"/>
		<path fill="#FFFFFF" d="M1050.7,832.4l36.9-3.6l-1.2,10.8l-23.6,2.3l-1.7,15.4l22.2-2.2l-1.2,10.8l-22.2,2.2l-3.1,28.4l-13.3,1.3
			L1050.7,832.4z"/>
	</g>
</g>
</svg>
