<?xml version="1.0" encoding="utf-8"?>
<!-- Generator: Adobe Illustrator 18.0.0, SVG Export Plug-In . SVG Version: 6.00 Build 0)  -->
<!DOCTYPE svg PUBLIC "-//W3C//DTD SVG 1.1//EN" "http://www.w3.org/Graphics/SVG/1.1/DTD/svg11.dtd">
<svg version="1.1" id="Calque_1" xmlns="http://www.w3.org/2000/svg" xmlns:xlink="http://www.w3.org/1999/xlink" x="0px" y="0px"
	 viewBox="0 0 60 43" enable-background="new 0 0 60 43" xml:space="preserve">
<polygon fill="#FFFFFF" points="0.6,7 19.1,7 18.3,12 12.1,12 8.7,35.7 2.9,35.6 6.4,11.9 0,11.9 "/>
<path fill="#FFFFFF" d="M21.1,7h6l-3,19.8c0,0-0.6,2.6,0.2,4c0.8,1.4,3.6,1.5,4.8,0.4c1.2-1.1,1.5-3.7,1.7-4.6
	C31.2,25.6,33.7,7,33.7,7h5.8c0,0-2.4,18.3-2.7,20.2c-0.3,1.8-1.1,6-4.7,7.9s-8.4,1.5-11,0.1c-2.6-1.4-3.2-3.9-2.8-7.6
	C18.8,23.8,21.1,7,21.1,7z"/>
<path fill="#FFFFFF" d="M44.7,35.7h-5.9L42.9,7h10.4c2.5,0,5.5,1.5,6.2,4.5c1,4.1-0.6,8.2-2.3,10c-1.9,2.1-5.3,2.7-6.8,2.7
	s-4.1,0-4.1,0L44.7,35.7z M46.8,20.1c0,0,3.2,0.1,4.1-0.3c1.3-0.6,3-1.4,3-5.3c0-3.3-2.9-3.2-2.9-3.2h-3L46.8,20.1z"/>
</svg>
