<?xml version="1.0" encoding="utf-8"?>
<!-- Generator: Adobe Illustrator 21.0.0, SVG Export Plug-In . SVG Version: 6.00 Build 0)  -->
<svg version="1.1" id="Calque_1" xmlns="http://www.w3.org/2000/svg" xmlns:xlink="http://www.w3.org/1999/xlink" x="0px" y="0px"
	 viewBox="0 0 128 145.4" style="enable-background:new 0 0 128 145.4;" xml:space="preserve">
<style type="text/css">
	.st0{fill:#B33500;}
	.st1{fill:#FFFFFF;}
</style>
<ellipse class="st0" cx="64" cy="64" rx="64" ry="63.6"/>
<g>
	<path class="st1" d="M58,106.1c-5.9,0-12.9-2.7-17-9.1c-0.6-0.9-2.3-4-2-10l8,0.5c-0.2,3.1,0.4,4.6,0.6,5l0.2,0.2l-0.1,0
		c2.8,4.4,8,5.9,11.7,5.4c5.9-0.8,8.4-3.7,9-10.4c1.2-13.8,9.8-20.5,11.5-21.7l0.3-0.2c2.6-2.2,4.9-4.2,6-8.3
		c1.5-5.5,1.2-11.1-0.8-15.9c-2.1-4.9-5.8-8.4-10.8-10.3c-5-1.9-10.5-1.7-15.4,0.5c-4.9,2.2-8.7,6.2-10.6,11.2L41.1,40
		c2.7-7,7.9-12.5,14.8-15.6c6.9-3.1,14.5-3.3,21.6-0.7C91.3,28.9,98.2,44,94,59.5c-1.8,6.4-5.5,9.6-8.5,12.2l-0.7,0.6l-0.2,0.1
		c-0.5,0.3-7.3,5.1-8.2,15.9c-0.9,10.4-6.2,16.3-15.9,17.6C59.7,106,58.9,106.1,58,106.1z M47.6,92.4L47.6,92.4L47.6,92.4z"/>
</g>
<g>
	<path class="st1" d="M80,54.3l-7.5-2.8c1-2.6-0.3-5.5-2.9-6.4c-1.3-0.5-2.6-0.4-3.8,0.1c-1.2,0.5-2.2,1.5-2.6,2.8l-7.5-2.8
		c1.2-3.2,3.7-5.8,6.8-7.2c3.2-1.4,6.7-1.5,10-0.3C79.2,40.1,82.6,47.6,80,54.3z"/>
</g>
</svg>
