<?xml version="1.0" encoding="utf-8"?>
<svg xmlns="http://www.w3.org/2000/svg" id="Calque_5" viewBox="-241 333 128 145.4">
  <path fill="#00E8C0" d="M-177 478.4l-10.2-17.8-10.3-17.8h41l-10.3 17.8z"/>
  <circle fill="#00E8C0" cx="-177" cy="397" r="64"/>
  <path fill="#FFFFFF" d="M-151.4 423.2c0 3-2.4 5.4-5.4 5.4h-40.3c-3 0-5.4-2.4-5.4-5.4 0-3 2.4-5.4 5.4-5.4h40.3c3 0 5.4 2.4 5.4 5.4zm-20.2-18.8c0 3-2.4 5.4-5.4 5.4-3 0-5.4-2.4-5.4-5.4V364c0-3 2.4-5.4 5.4-5.4 3 0 5.4 2.4 5.4 5.4v40.4z"/>
  <path fill="#FFFFFF" d="M-158.4 414.3v-26.7c0-10.3-8.3-18.6-18.6-18.6s-18.6 8.3-18.6 18.6v26.7h37.2z"/>
</svg>