<?xml version="1.0" encoding="utf-8"?>
<svg xmlns="http://www.w3.org/2000/svg" id="Calque_3" viewBox="-241 333 128 145.4">
  <path fill="#00E8C0" d="M-177 478.4l-10.2-17.8-10.3-17.8h41l-10.3 17.8z"/>
  <circle fill="#00E8C0" cx="-177" cy="397" r="64"/>
  <path fill="#FFFFFF" d="M-150.4 406.5l5.8-28.4-55.3-7.4-4.4-3c.1-.3.2-.6.2-1 0-2.3-1.9-4.2-4.2-4.2-2.3 0-4.2 1.9-4.2 4.2 0 2.3 1.9 4.2 4.2 4.2.3 0 .6-.1.8-.2l5.2 3.5 8.6 34 2.6-.1-2.4 7.4h-.3c-4 0-7.3 3.3-7.3 7.3s3.3 7.3 7.3 7.3c3 0 5.5-1.8 6.7-4.4h23c1.1 2.6 3.6 4.4 6.5 4.4 3.9 0 7.1-3.2 7.1-7.1 0-3.9-3.2-7.1-7.1-7.1-3.4 0-6.1 2.3-6.9 5.5h-22.2c-.4-1.8-1.4-3.3-2.7-4.3l2.9-9.1 36.1-1.5zm-29-3.8c-1.4 0-2.6-1.2-2.6-2.6 0-1.4 1.2-2.6 2.6-2.6 1.4 0 2.6 1.2 2.6 2.6 0 1.4-1.2 2.6-2.6 2.6m8.7 0c-1.4 0-2.6-1.2-2.6-2.6 0-1.4 1.2-2.6 2.6-2.6 1.4 0 2.6 1.2 2.6 2.6 0 1.4-1.2 2.6-2.6 2.6m8.7 0c-1.4 0-2.6-1.2-2.6-2.6 0-1.4 1.2-2.6 2.6-2.6 1.4 0 2.6 1.2 2.6 2.6 0 1.4-1.2 2.6-2.6 2.6m8.7-22.7c1.4 0 2.6 1.2 2.6 2.6 0 1.4-1.2 2.6-2.6 2.6-1.4 0-2.6-1.2-2.6-2.6 0-1.4 1.2-2.6 2.6-2.6m-1.7 11.3c0 1.4-1.2 2.6-2.6 2.6-1.4 0-2.6-1.2-2.6-2.6 0-1.4 1.2-2.6 2.6-2.6 1.4 0 2.6 1.2 2.6 2.6m-7-11.3c1.4 0 2.6 1.2 2.6 2.6 0 1.4-1.2 2.6-2.6 2.6-1.4 0-2.6-1.2-2.6-2.6 0-1.4 1.2-2.6 2.6-2.6m-1.8 11.3c0 1.4-1.2 2.6-2.6 2.6-1.4 0-2.6-1.2-2.6-2.6 0-1.4 1.2-2.6 2.6-2.6 1.5 0 2.6 1.2 2.6 2.6m-6.9-11.3c1.4 0 2.6 1.2 2.6 2.6 0 1.4-1.2 2.6-2.6 2.6-1.4 0-2.6-1.2-2.6-2.6 0-1.4 1.1-2.6 2.6-2.6m-1.8 11.3c0 1.4-1.2 2.6-2.6 2.6-1.4 0-2.6-1.2-2.6-2.6 0-1.4 1.2-2.6 2.6-2.6 1.4 0 2.6 1.2 2.6 2.6m-6.9-11.3c1.4 0 2.6 1.2 2.6 2.6 0 1.4-1.2 2.6-2.6 2.6-1.4 0-2.6-1.2-2.6-2.6-.1-1.4 1.1-2.6 2.6-2.6m-1.8 11.3c0 1.4-1.2 2.6-2.6 2.6-1.4 0-2.6-1.2-2.6-2.6 0-1.4 1.2-2.6 2.6-2.6 1.4 0 2.6 1.2 2.6 2.6m-9.6-8.7c0-1.4 1.2-2.6 2.6-2.6s2.6 1.2 2.6 2.6c0 1.4-1.2 2.6-2.6 2.6s-2.6-1.2-2.6-2.6"/>
</svg>