<?xml version="1.0" encoding="utf-8"?>
<svg xmlns="http://www.w3.org/2000/svg" viewBox="0 0 128 128">
  <path fill="#E95200" d="M64 128C28.7 128 0 99.3 0 64S28.7 0 64 0s64 28.7 64 64-28.7 64-64 64z"/>
  <path fill="#FFF" d="M65.5 68.1L62.8 66c-.8-.7-2-1.6-2-3.3 0-1.7 1.1-2.7 2.1-3.7 3.2-2.5 6.4-5.2 6.4-10.8 0-5.8-3.6-8.8-5.4-10.2h4.7l4.9-3.1H58.7c-4.1 0-10 1-14.3 4.5-3.3 2.8-4.8 6.7-4.8 10.2 0 5.9 4.5 11.9 12.6 11.9.8 0 1.6-.1 2.4-.2-.4.9-.8 1.7-.8 3 0 2.3 1.2 3.8 2.3 5.2-3.4.2-9.8.6-14.5 3.5-4.5 2.7-5.8 6.5-5.8 9.3 0 5.6 5.3 10.9 16.3 10.9 13 0 19.9-7.2 19.9-14.3-.1-5.4-3.1-8-6.5-10.8zm-9.9-8.7c-6.5 0-9.5-8.4-9.5-13.5 0-2 .4-4 1.7-5.6 1.2-1.5 3.3-2.5 5.3-2.5 6.3 0 9.5 8.5 9.5 14 0 1.4-.2 3.8-1.9 5.5-1.1 1.2-3.2 2.1-5.1 2.1zm.1 30.5c-8.1 0-13.3-3.9-13.3-9.3s4.8-7.2 6.5-7.8c3.2-1.1 7.3-1.2 7.9-1.2.8 0 1.1 0 1.7.1 5.8 4.1 8.3 6.1 8.3 10 0 4.7-3.8 8.2-11.1 8.2zm29-30.6v-7.6h-3.8v7.6h-7.6v3.8h7.6v7.6h3.8v-7.6h7.6v-3.8"/>
</svg>