<?xml version="1.0" standalone="no"?>
<!DOCTYPE svg PUBLIC "-//W3C//DTD SVG 1.1//EN" "http://www.w3.org/Graphics/SVG/1.1/DTD/svg11.dtd" >
<svg xmlns="http://www.w3.org/2000/svg">
<metadata>Generated by IcoMoon</metadata>
<defs>
<font id="icomoon" horiz-adv-x="1024">
<font-face units-per-em="1024" ascent="960" descent="-64" />
<missing-glyph horiz-adv-x="1024" />
<glyph unicode="&#x20;" horiz-adv-x="512" d="" />
<glyph unicode="&#xe900;" glyph-name="agenda" d="M748.8 710.4c28.8 0 52 23.2 52 52v144c0 28.8-23.2 52-52 52s-52-23.2-52-52v-144c0-28.8 23.2-52 52-52zM275.2 710.4c28.8 0 52 23.2 52 52v144c0 28.8-23.2 52-52 52s-52-23.2-52-52v-144c0-28.8 23.2-52 52-52zM872.8 836.8h-27.2v-79.2c0-20-6.4-38.4-16.8-54.4-10.4-15.2-25.6-27.2-43.2-35.2-12-4.8-24-8-37.6-8-20 0-38.4 6.4-54.4 16.8-15.2 10.4-27.2 25.6-35.2 43.2-4.8 12-8 24-8 37.6v78.4h-278.4v-79.2c0-20-6.4-38.4-16.8-54.4s-25.6-27.2-43.2-35.2c-12-4.8-24-8-37.6-8-20 0-38.4 6.4-54.4 16.8-15.2 10.4-27.2 25.6-35.2 43.2-4.8 12-8 24-8 37.6v78.4h-27.2c-48.8 0-89.6-40.8-89.6-90.4v-721.6c0-49.6 40.8-90.4 90.4-90.4h721.6c49.6 0 90.4 40.8 90.4 90.4v723.2c0.8 49.6-40 90.4-89.6 90.4zM872.8 33.6h-716.8v464.8h717.6l-0.8-464.8z" />
<glyph unicode="&#xe901;" glyph-name="agenda3" d="M748.8 710.4c28.8 0 52 23.2 52 52v144c0 28.8-23.2 52-52 52s-52-23.2-52-52v-144c0-28.8 23.2-52 52-52zM275.2 710.4c28.8 0 52 23.2 52 52v144c0 28.8-23.2 52-52 52s-52-23.2-52-52v-144c0-28.8 23.2-52 52-52zM872.8 836.8h-27.2v-79.2c0-20-6.4-38.4-16.8-54.4-10.4-15.2-25.6-27.2-43.2-35.2-12-4.8-24-8-37.6-8-20 0-38.4 6.4-54.4 16.8-15.2 10.4-27.2 25.6-35.2 43.2-4.8 12-8 24-8 37.6v78.4h-278.4v-79.2c0-20-6.4-38.4-16.8-54.4s-25.6-27.2-43.2-35.2c-12-4.8-24-8-37.6-8-20 0-38.4 6.4-54.4 16.8-15.2 10.4-27.2 25.6-35.2 43.2-4.8 12-8 24-8 37.6v78.4h-27.2c-48.8 0-89.6-40.8-89.6-90.4v-721.6c0-49.6 40.8-90.4 90.4-90.4h721.6c49.6 0 90.4 40.8 90.4 90.4v723.2c0.8 49.6-40 90.4-89.6 90.4zM872.8 33.6h-716.8v464.8h717.6l-0.8-464.8zM489.6 286.4c27.2-2.4 65.6 3.2 65.6 38.4 0 26.4-20.8 40.8-44 40.8-31.2 0-48-23.2-48-55.2h-59.2c2.4 63.2 43.2 106.4 106.4 106.4 49.6 0 103.2-30.4 103.2-85.6 0-28.8-14.4-55.2-43.2-63.2v-0.8c33.6-7.2 54.4-36 54.4-70.4 0-64.8-54.4-101.6-114.4-101.6-69.6 0-116 41.6-114.4 112.8h59.2c1.6-33.6 18.4-60.8 54.4-60.8 28 0 50.4 19.2 50.4 48.8 0 46.4-40.8 45.6-71.2 45.6v44.8z" />
<glyph unicode="&#xe902;" glyph-name="bubbles_inter" d="M955.2 191.2c100 174.4 92 399.2-38.4 568-100.8 130.4-252.8 199.2-405.6 199.2-109.6 0-220-34.4-313.6-106.4-223.2-174.4-264.8-495.2-91.2-719.2 100.8-130.4 252.8-198.4 405.6-198.4 88 0 176 22.4 255.2 68.8l114.4-31.2 143.2-37.6-37.6 143.2-32 113.6zM297.6 558.4c2.4 126.4 85.6 218.4 215.2 218.4 167.2 0 220-102.4 220-170.4 0-85.6-36-120-74.4-149.6-38.4-28-78.4-51.2-86.4-103.2v-33.6h-119.2v40c5.6 76.8 41.6 111.2 76.8 139.2 34.4 27.2 64.8 48 64.8 95.2 0 53.6-28 80-75.2 80-64 0-90.4-52-91.2-115.2h-130.4zM440 266.4h139.2v-136h-139.2v136z" />
<glyph unicode="&#xe903;" glyph-name="bubbles_left" d="M68 192.8c-100 174.4-92 399.2 38.4 568 100.8 130.4 252.8 199.2 405.6 199.2 109.6 0 220-34.4 313.6-106.4 223.2-174.4 264.8-495.2 91.2-719.2-100.8-130.4-252.8-198.4-405.6-198.4-88 0-176 22.4-255.2 68.8l-114.4-31.2-143.2-37.6 37.6 143.2 32 113.6zM844.8 190.4c143.2 183.2 108.8 448.8-75.2 592-74.4 56.8-164 88-257.6 88-131.2 0-253.6-59.2-333.6-164-68.8-89.6-99.2-200-84.8-311.2 14.4-112 71.2-211.2 160-280.8 74.4-57.6 164-88 257.6-88 131.2 0 253.6 59.2 333.6 164z" />
<glyph unicode="&#xe904;" glyph-name="bubbles_right" d="M956 192.8c100 174.4 92 399.2-38.4 568-100.8 130.4-252.8 199.2-405.6 199.2-109.6 0-220-34.4-313.6-106.4-223.2-174.4-264.8-495.2-91.2-719.2 100.8-130.4 252.8-198.4 405.6-198.4 88 0 176 22.4 255.2 68.8l114.4-31.2 143.2-37.6-37.6 143.2-32 113.6zM179.2 190.4c-143.2 183.2-108.8 448.8 75.2 592 74.4 56.8 164 88 257.6 88 131.2 0 253.6-59.2 333.6-164 68.8-89.6 99.2-200 84.8-311.2-14.4-112-71.2-211.2-160-280.8-74.4-57.6-164-88-257.6-88-131.2 0-253.6 59.2-333.6 164z" />
<glyph unicode="&#xe905;" glyph-name="chevron_down" d="M512 361.8v0 0l348.4 334.4c8.6 8.4 22.8 8.2 31.6-0.4l61.2-59.8c8.8-8.6 9-22.6 0.4-31l-425.4-408.4c-4.4-4.4-10.4-6.4-16.2-6-6-0.2-11.8 1.8-16.2 6l-425.4 408.4c-8.6 8.4-8.4 22.4 0.4 31l61.2 59.8c8.8 8.6 23 8.8 31.6 0.4l348.4-334.4z" />
<glyph unicode="&#xe906;" glyph-name="chevron_left" d="M421.6 446.4l328 341.6c8 8.8 8 22.4 0 31.2l-59.2 59.2c-8.8 8.8-22.4 8.8-30.4 0l-400.8-416.8c-4-4-6.4-10.4-5.6-16 0-5.6 1.6-11.2 5.6-16l400.8-417.6c8-8.8 21.6-8 30.4 0l58.4 60c8.8 8.8 8.8 22.4 0 31.2l-327.2 343.2z" />
<glyph unicode="&#xe907;" glyph-name="chevron_right" d="M596.6 446.4v0 0l-334.4 348.2c-8.4 8.6-8.2 22.8 0.4 31.6l59.8 61.2c8.6 8.8 22.6 9 31 0.4l408.4-425.4c4.4-4.4 6.4-10.4 6-16.2 0.2-6-1.8-11.8-6-16.2l-408.4-425.2c-8.4-8.6-22.4-8.4-31 0.4l-59.8 61.2c-8.6 8.8-8.8 23-0.4 31.6l334.4 348.4z" />
<glyph unicode="&#xe908;" glyph-name="clock" d="M873.6 808c-96 96.8-224.8 150.4-361.6 150.4s-265.6-53.6-362.4-150.4-149.6-224.8-149.6-361.6 53.6-264.8 150.4-361.6c96-96.8 224.8-150.4 361.6-150.4s264.8 53.6 361.6 150.4c96.8 96 150.4 224.8 150.4 361.6s-53.6 264.8-150.4 361.6zM512 19.2c-236 0-427.2 192-427.2 427.2s192 427.2 427.2 427.2 427.2-192 427.2-427.2-191.2-427.2-427.2-427.2zM695.2 481.6h-152.8v281.6c0 19.2-16 35.2-35.2 35.2s-35.2-16-35.2-35.2v-316.8c0-19.2 16-35.2 35.2-35.2h188c19.2 0 35.2 16 35.2 35.2s-16 35.2-35.2 35.2z" />
<glyph unicode="&#xe909;" glyph-name="close" d="M1024 856l-102.4 102.4-409.6-409.6-409.6 409.6-102.4-102.4 409.6-409.6-409.6-409.6 102.4-102.4 409.6 409.6 409.6-409.6 102.4 102.4-409.6 409.6z" />
<glyph unicode="&#xe90a;" glyph-name="condom" d="M802.4 93.6h-588.8c-44 0-79.2-35.2-79.2-79.2s35.2-79.2 79.2-79.2h588.8c44 0 79.2 35.2 79.2 79.2 0.8 43.2-35.2 79.2-79.2 79.2zM779.2 535.2c0 122.4-80.8 225.6-192 259.2v84.8c0.8 44-35.2 79.2-79.2 79.2s-79.2-35.2-79.2-79.2v-84c-111.2-34.4-192-137.6-192-259.2v-390.4h542.4v389.6z" />
<glyph unicode="&#xe90b;" glyph-name="condomfemme" d="M809.6 958.4h-595.2c-44 0-80-36-80-80s36-80 80-80h594.4c44 0 80 36 80 80s-35.2 80-79.2 80zM238.4 208c0-151.2 122.4-273.6 273.6-273.6s273.6 122.4 273.6 273.6v538.4h-547.2v-538.4zM509.6 429.6c116.8 0 211.2-95.2 211.2-211.2s-94.4-212-211.2-212c-116.8 0-211.2 95.2-211.2 211.2s94.4 212 211.2 212zM663.2 218.4c0-84.831-68.769-153.6-153.6-153.6s-153.6 68.769-153.6 153.6c0 84.831 68.769 153.6 153.6 153.6s153.6-68.769 153.6-153.6z" />
<glyph unicode="&#xe90c;" glyph-name="contraception" d="M512 958.4c-108.8 0-197.6-88.8-197.6-197.6v-284.8h395.2v284.8c0 108.8-88.8 197.6-197.6 197.6zM314.4 132c0-108.8 88.8-197.6 197.6-197.6s197.6 88.8 197.6 197.6v283.2h-395.2v-283.2z" />
<glyph unicode="&#xe90d;" glyph-name="exclam" d="M568.8 309.6l62.4 409.6v240h-238.4v-240l62.4-409.6zM385.6 186.4h253.6v-253.6h-253.6z" />
<glyph unicode="&#xe90e;" glyph-name="geopos" d="M855.2 880.8l-564.8-260-290.4-136h550.4v-550.4l135.2 290.4 259.2 564.8 79.2 168.8-168.8-77.6zM620 253.6v300.8h-300.8l560.8 260-260-560.8z" />
<glyph unicode="&#xe90f;" glyph-name="home" d="M1024 471.2l-256 236-256 235.2-256-235.2-256-236h122.4v-515.2h268.8v318.4h233.6v-318.4h268.8v515.2z" />
<glyph unicode="&#xe910;" glyph-name="interrogation" d="M172.8 611.2c4 196.8 133.6 340 335.2 340 260.8 0 343.2-160 343.2-265.6 0-133.6-56.8-187.2-116-232.8-59.2-44-122.4-80-135.2-161.6v-52h-185.6v62.4c8 120 64.8 173.6 120 216 53.6 42.4 100.8 74.4 100.8 148.8-0.8 84-44.8 124-117.6 124-99.2 0-140.8-81.6-141.6-179.2h-203.2zM395.2 156.8h216v-212h-216v212z" />
<glyph unicode="&#xe911;" glyph-name="ist" d="M860.8 298.4c13.6 32 23.2 66.4 28 104l136 45.6-136 45.6c-4.8 36-13.6 71.2-28 104l95.2 107.2-140.8-28.8c-21.6 26.4-47.2 52.8-76 74.4l28.8 140.8-107.2-95.2c-32 13.6-66.4 23.2-104 28l-44.8 135.2-45.6-136c-36-4.8-70.4-13.6-103.2-28l-106.4 95.2 28.8-140.8c-28.8-21.6-54.4-47.2-76-76l-140.8 28.8 95.2-107.2c-13.6-32-23.2-66.4-28-104l-135.2-44.8 136-45.6c4.8-36 13.6-71.2 28-104l-96-106.4 140.8 28.8c21.6-28.8 47.2-54.4 76-76l-28.8-140.8 106.4 94.4c32-13.6 66.4-23.2 103.2-28l45.6-136 45.6 136c36 4.8 71.2 13.6 104 28l106.4-95.2-28.8 140.8c28.8 21.6 54.4 47.2 76 76l140.8-28.8-95.2 108.8z" />
<glyph unicode="&#xe912;" glyph-name="magnify" d="M1020.8-9.6l-287.2 288c60 72 96 164.8 96 265.6 0 228.8-185.6 414.4-415.2 414.4-228.8 0-414.4-185.6-414.4-414.4s185.6-414.4 414.4-414.4c98.4 0 188 34.4 259.2 91.2l288-288 59.2 57.6zM414.4 206.4c-185.6 0-336.8 151.2-336.8 337.6s151.2 337.6 337.6 337.6c185.6-0.8 336.8-152 336.8-337.6 0-186.4-151.2-337.6-337.6-337.6z" />
<glyph unicode="&#xe913;" glyph-name="mairie" d="M860 468.8h164l-512 446.4-512-446.4h164v-365.6h-82.4v-130.4h861.6v130.4h-82.4c-0.8 0-0.8 365.6-0.8 365.6zM764 103.2h-104v365.6h104.8c-0.8 0-0.8-365.6-0.8-365.6zM560 468.8v-365.6h-96v365.6h96zM260 468.8h104.8v-365.6h-104.8v365.6z" />
<glyph unicode="&#xe914;" glyph-name="metro" d="M992 885.6c-6.4 20-18.4 39.2-37.6 52.8-9.6 6.4-20.8 12.8-33.6 16s-27.2 5.6-43.2 5.6-30.4-1.6-43.2-5.6c-9.6-3.2-18.4-7.2-26.4-12-12-8-21.6-17.6-30.4-29.6s-16-25.6-24-40l-240.8-500.8-241.6 500c-6.4 13.6-13.6 25.6-20.8 36-5.6 8-12 15.2-19.2 21.6-10.4 9.6-22.4 16.8-36.8 22.4-14.4 4.8-29.6 7.2-48 7.2-21.6 0-40-3.2-56-9.6-11.2-4.8-20.8-11.2-29.6-18.4-12.8-12-21.6-25.6-26.4-40.8s-7.2-30.4-7.2-45.6v-821.6c0-13.6 2.4-26.4 7.2-37.6 8-16.8 20-29.6 35.2-38.4 15.2-8 32.8-12.8 51.2-12.8 11.2 0 23.2 1.6 33.6 5.6 16.8 5.6 32 15.2 44 28.8 5.6 7.2 9.6 14.4 12.8 24 3.2 8.8 4 19.2 4 29.6v540.8l203.2-412h0.8c4.8-8.8 10.4-16.8 15.2-24.8 8.8-11.2 19.2-20.8 32-27.2s28-9.6 44-9.6c10.4 0 21.6 0.8 30.4 4 14.4 4 26.4 12 36 21.6 10.4 10.4 17.6 21.6 24 35.2h0.8l206.4 412.8v-540.8c0-14.4 1.6-27.2 8-38.4 8.8-16.8 21.6-29.6 37.6-37.6 15.2-8 32.8-12.8 49.6-12.8 24.8 0 48 8 66.4 22.4 8.8 8 15.2 16.8 20.8 28s7.2 24 7.2 37.6v823.2c-0.8 13.6-1.6 27.2-5.6 40.8z" />
<glyph unicode="&#xe915;" glyph-name="navicon" horiz-adv-x="1144" d="M1144.471 115.106v-180.706h-1144.471v180.706zM1144.471 536.753v-180.706h-1144.471v180.706zM1144.471 958.4v-180.706h-1144.471v180.706z" />
<glyph unicode="&#xe916;" glyph-name="phone" d="M1000.8 178.4c-64 36-126.4 73.6-189.6 111.2-33.6 20-49.6 17.6-75.2-12-21.6-24.8-41.6-51.2-62.4-76.8-29.6-35.2-41.6-37.6-80-12.8-97.6 64-188 136-266.4 222.4-24 26.4-44.8 56-62.4 87.2-36 60.8-31.2 76.8 22.4 121.6 24 20.8 48.8 41.6 71.2 64 16 15.2 16.8 34.4 4.8 54.4-42.4 67.2-83.2 136-126.4 204-5.6 8.8-20 15.2-31.2 16.8-12.8 0.8-27.2-3.2-39.2-8.8-49.6-25.6-92-58.4-124-104-32.8-46.4-51.2-98.4-39.2-155.2s22.4-116 45.6-168.8c106.4-255.2 300-425.6 544.8-541.6 54.4-25.6 112-40.8 172.8-44.8 24.8 4.8 51.2 6.4 76.8 14.4 90.4 28 152.8 85.6 179.2 179.2 6.4 21.6 0.8 37.6-21.6 49.6z" />
<glyph unicode="&#xe917;" glyph-name="planningfam" d="M856 604c0 192-155.2 347.2-345.6 347.2-192 0-347.2-156-347.2-347.2 0-176 132-322.4 304-342.4v-106.4h-135.2v-88h134.4v-134.4h88v133.6h132v87.2h-131.2v105.6c168 22.4 300.8 167.2 300.8 344.8v0zM265.6 604c0 133.6 109.6 243.2 243.2 243.2s244-109.6 244-243.2c1.6-133.6-108.8-243.2-241.6-243.2-136-0.8-245.6 107.2-245.6 243.2v0z" />
<glyph unicode="&#xe918;" glyph-name="plume" d="M596.8 958.4c-6.4 3.2-211.2-199.2-247.2-517.6-35.2-311.2 84.8-505.6 84.8-505.6s12.8-16.8-7.2 62.4c-33.6 134.4-48 296.8-12 504.8s111.2 278.4 111.2 278.4c-31.2-48.8-69.6-141.6-87.2-329.6-17.6-190.4 16-360 16-360 39.2 53.6 64.8 134.4 63.2 136-0.8 1.6-20-0.8-25.6 0-8 0.8-5.6 6.4 3.2 15.2 8 7.2 35.2 22.4 39.2 27.2 4 5.6 13.6 46.4 13.6 49.6s0 3.2-4 4-44.8-1.6-43.2 8.8c1.6 11.2 46.4 36.8 56 41.6s8.8 6.4 8.8 6.4c85.6 382.4 38.4 574.4 30.4 578.4z" />
<glyph unicode="&#xe919;" glyph-name="plus" d="M955.2 616.8h-272.8v272.8c0 37.6-31.2 68.8-68.8 68.8h-204c-37.6 0-68.8-31.2-68.8-68.8v-272.8h-272c-37.6 0-68.8-31.2-68.8-68.8v-204c0-37.6 31.2-68.8 68.8-68.8h272.8v-272.8c0-37.6 31.2-68.8 68.8-68.8h204c37.6 0 68.8 31.2 68.8 68.8v273.6h272.8c37.6 0 68.8 31.2 68.8 68.8v204c-0.8 37.6-32 68-69.6 68z" />
<glyph unicode="&#xe91a;" glyph-name="plus_light" d="M1022.4 401.6h-467.2v-467.2h-88v467.2h-467.2v88h467.2v467.2h88v-467.2h467.2v-88z" />
<glyph unicode="&#xe91b;" glyph-name="poi" d="M512 958.4c-200.8 0-364-163.2-364-364s364-660 364-660 364 459.2 364 660-163.2 364-364 364zM512 412.8c-100.8 0-181.6 81.6-181.6 181.6s80.8 182.4 181.6 182.4 181.6-81.6 181.6-181.6-80.8-182.4-181.6-182.4z" />
<glyph unicode="&#xe91c;" glyph-name="signal" d="M964.8 741.6c53.6 53.6 64.8 130.4 24 171.2s-116.8 29.6-171.2-24zM816 448v-409.6h-720v720h432l92 88h-620v-904h904v597.6zM380.8 161.6l-193.6-51.2 47.2 197.6 560 560 146.4-146.4z" />
<glyph unicode="&#xe91d;" glyph-name="star" d="M509.6 930.4l-163.2-318.4-320-45.6 223.2-233.6-47.2-354.4 313.6 166.4 300-168-41.6 352 224 235.2-328.8 44z" />
<glyph unicode="&#xe91e;" glyph-name="supermarket" d="M1024.8 724l-833.6 111.2-66.4 44c0.8 4.8 3.2 9.6 3.2 15.2 0 36-28.8 64-64 64s-64-28.8-64-64 28.8-64 64-64c4 0 8.8 1.6 12.8 2.4l78.4-52.8 129.6-512.8 39.2 1.6-35.2-111.2c-1.6 0-3.2 0.8-4 0.8-60 0-109.6-48.8-109.6-109.6s48.8-109.6 109.6-109.6c44.8 0 83.2 27.2 100 65.6h346.4c16-38.4 53.6-65.6 99.2-65.6 59.2 0 106.4 48 106.4 106.4s-48 107.2-106.4 107.2c-50.4 0-92.8-35.2-104-81.6h-334.4c-5.6 26.4-20.8 48.8-41.6 64.8l43.2 136.8 543.2 22.4 88 428.8zM762.4 695.2c21.6 0 39.2-17.6 39.2-39.2s-17.6-39.2-39.2-39.2-39.2 17.6-39.2 39.2 17.6 39.2 39.2 39.2zM630.4 695.2c21.6 0 39.2-17.6 39.2-39.2s-17.6-39.2-39.2-39.2-39.2 17.6-39.2 39.2 17.6 39.2 39.2 39.2zM499.2 695.2c21.6 0 39.2-17.6 39.2-39.2s-17.6-39.2-39.2-39.2-39.2 17.6-39.2 39.2 17.6 39.2 39.2 39.2zM368 616.8c-21.6 0-39.2 17.6-39.2 39.2s17.6 39.2 39.2 39.2 39.2-17.6 39.2-39.2-17.6-39.2-39.2-39.2zM395.2 524.8c0 21.6 17.6 39.2 39.2 39.2s39.2-17.6 39.2-39.2-17.6-39.2-39.2-39.2c-22.4 0-39.2 17.6-39.2 39.2zM499.2 354.4c-21.6 0-39.2 17.6-39.2 39.2s17.6 39.2 39.2 39.2 39.2-17.6 39.2-39.2c0-22.4-17.6-39.2-39.2-39.2zM525.6 524.8c0 21.6 17.6 39.2 39.2 39.2s39.2-17.6 39.2-39.2-17.6-39.2-39.2-39.2-39.2 17.6-39.2 39.2zM630.4 354.4c-21.6 0-39.2 17.6-39.2 39.2s17.6 39.2 39.2 39.2 39.2-17.6 39.2-39.2c0-22.4-17.6-39.2-39.2-39.2zM657.6 524.8c0 21.6 17.6 39.2 39.2 39.2s39.2-17.6 39.2-39.2-17.6-39.2-39.2-39.2-39.2 17.6-39.2 39.2zM762.4 354.4c-21.6 0-39.2 17.6-39.2 39.2s17.6 39.2 39.2 39.2 39.2-17.6 39.2-39.2c0-22.4-17.6-39.2-39.2-39.2zM828 485.6c-21.6 0-39.2 17.6-39.2 39.2s17.6 39.2 39.2 39.2 39.2-17.6 39.2-39.2-17.6-39.2-39.2-39.2zM893.6 617.6c-21.6 0-39.2 17.6-39.2 39.2-0.8 21.6 17.6 39.2 39.2 39.2s39.2-17.6 39.2-39.2-17.6-39.2-39.2-39.2z" />
<glyph unicode="&#xe91f;" glyph-name="tpe" d="M512 960.8s-345.6-488-345.6-678.4 153.6-345.6 344.8-345.6 345.6 155.2 345.6 345.6-344.8 678.4-344.8 678.4z" />
<glyph unicode="&#xe920;" glyph-name="walker" d="M682.4 867.2c0-45.95-37.25-83.2-83.2-83.2s-83.2 37.25-83.2 83.2c0 45.95 37.25 83.2 83.2 83.2s83.2-37.25 83.2-83.2zM316.8 457.6h-80.8v242.4l228.8 75.2c0 0 21.6 6.4 47.2 6.4 39.2 0 62.4-30.4 62.4-30.4l116-154.4 162.4-1.6-4.8-84-232 2.4-60 79.2-32-154.4c0 0 131.2-178.4 131.2-202.4s0-298.4 0-298.4h-94.4v249.6l-100 135.2-156.8-384h-68l112.8 458.4 56.8 252c0 0-68-20.8-86.4-20.8 0.8-33.6-2.4-170.4-2.4-170.4z" />
<glyph unicode="&#xe921;" glyph-name="record" d="M512 30.4c229.8 0 416 186.2 416 416s-186.2 416-416 416c-229.8 0-416-186.2-416-416s186.2-416 416-416z" />
<glyph unicode="&#xe922;" glyph-name="barriere" d="M512 956.8c-281.6 0-510.4-228.8-510.4-510.4s228.8-510.4 510.4-510.4 510.4 228.8 510.4 510.4c0 282.4-228.8 510.4-510.4 510.4zM512 796.8c68 0 131.2-19.2 184.8-52.8l-483.2-481.6c-33.6 53.6-52.8 116.8-52.8 184 0.8 193.6 158.4 350.4 351.2 350.4zM512 96c-67.2 0-131.2 19.2-184.8 52.8l482.4 481.6c32.8-53.6 52-116 52-184 0.8-192.8-156-350.4-349.6-350.4z" />
</font>
</defs>
</svg>
