<?xml version="1.0" encoding="utf-8"?>
<svg xmlns="http://www.w3.org/2000/svg" id="Calque_3" viewBox="-241 333 128 145.4">
  <circle fill="#269EB2" cx="-177" cy="397" r="64"/>
  <path fill="#FFFFFF" d="M-151.2 373.3c-.3-1.1-.9-2.1-2-2.8-.5-.4-1.1-.7-1.8-.9-.7-.2-1.5-.3-2.3-.3-.9 0-1.6.1-2.3.3-.5.2-1 .4-1.4.7-.7.4-1.2 1-1.7 1.6-.5.6-.9 1.4-1.3 2.2l-13 27-13.1-27c-.4-.7-.7-1.4-1.1-2-.3-.4-.6-.8-1-1.2-.6-.5-1.2-.9-2-1.2-.8-.3-1.6-.4-2.6-.4-1.2 0-2.2.2-3 .5-.6.3-1.2.6-1.7 1-.7.6-1 1.4-1.3 2.2-.3.8-.3 1.6-.3 2.5v44.4c0 .7 0 1.4.3 2 .4.9 1 1.6 1.9 2.1.8.5 1.8.7 2.8.7.6 0 1.2-.1 1.8-.3.9-.3 1.7-.8 2.4-1.6.3-.4.5-.8.7-1.3.2-.5.2-1 .2-1.6v-29.2l11 22.3c.2.5.5.9.8 1.3.5.6 1 1.1 1.7 1.5.7.3 1.5.5 2.4.5.6 0 1.1-.1 1.7-.2.8-.2 1.4-.6 2-1.2.5-.5 1-1.2 1.3-1.9h.1l11-22.3v29.2c0 .8.1 1.5.4 2.1.5.9 1.2 1.6 2 2 .8.4 1.8.7 2.7.7 1.3 0 2.6-.4 3.6-1.2.5-.4.7-.9 1-1.5.3-.6.3-1.3.3-2v-44.4c0-.8.1-1.6-.2-2.3z"/>
</svg>