<?xml version="1.0" encoding="utf-8"?>
<svg version="1.1" id="Calque_5" xmlns="http://www.w3.org/2000/svg" 
	 viewBox="0 0 128 145.4">
<g>
	<circle fill="#B33500" cx="64" cy="64" r="64"/>
	<path fill="#FFFFFF" d="M89.7,48.9c0-14.5-11.7-26.2-26.1-26.2c-14.5,0-26.2,11.8-26.2,26.2c0,13.3,10,24.3,23,25.9v8H50.2v6.7
		h10.1v10.2H67V89.5h10v-6.6H67v-8C79.7,73.2,89.7,62.3,89.7,48.9L89.7,48.9z M45.1,48.9c0-10.1,8.3-18.4,18.4-18.4
		s18.4,8.3,18.4,18.4c0.1,10.1-8.2,18.4-18.3,18.4C53.4,67.3,45.1,59.1,45.1,48.9L45.1,48.9z"/>
</g>
</svg>
