<?xml version="1.0" encoding="utf-8"?>
<svg xmlns="http://www.w3.org/2000/svg" id="Calque_5" viewBox="-241 333 128 145.4">
  <path fill="#EA0084" d="M-177 478.4l-10.2-17.8-10.3-17.8h41l-10.3 17.8z"/>
  <circle fill="#EA0084" cx="-177" cy="397" r="64"/>
  <path fill="#FFFFFF" d="M-169.9 404.9c-.9.4-4.9 2.8-5.1 3.8-.1 1 3.6.7 3.9.8.4.1.4 0 .4.4 0 .3-.9 4-1.3 4.5s-2.8 1.8-3.5 2.5c-.8.7-1.1 1.3-.3 1.3.6.1 2.3-.2 2.3 0 .1.1-2.2 7.5-5.8 12.3 0 0-3.1-15.4-1.5-32.6 1.6-17 5.1-25.4 7.9-29.9 0 0-6.8 6.3-10.1 25.2s-2 33.6 1.1 45.8c1.8 7.2.6 5.7.6 5.7s-10.9-17.6-7.7-45.8c3.3-28.8 21.8-47.2 22.4-46.9.7.4 5 17.8-2.7 52.3.2-.1.3.1-.6.6"/>
</svg>