<?xml version="1.0" encoding="utf-8"?>
<!-- Generator: Adobe Illustrator 18.0.0, SVG Export Plug-In . SVG Version: 6.00 Build 0)  -->
<!DOCTYPE svg PUBLIC "-//W3C//DTD SVG 1.1//EN" "http://www.w3.org/Graphics/SVG/1.1/DTD/svg11.dtd">
<svg version="1.1" id="Calque_1" xmlns="http://www.w3.org/2000/svg" xmlns:xlink="http://www.w3.org/1999/xlink" x="0px" y="0px"
	 viewBox="0 0 500 500" enable-background="new 0 0 500 500" xml:space="preserve">
<g>
	
		<rect x="250.8" y="228.9" transform="matrix(-0.981 0.1941 -0.1941 -0.981 602.5002 669.0558)" fill="#0F1324" width="35.3" height="270.2"/>
	<g>
		<g>
			
				<rect x="148.8" y="34.8" transform="matrix(-0.2958 0.9552 -0.9552 -0.2958 233.9995 -95.6847)" fill="#5B2676" width="7" height="7.3"/>
			
				<rect x="157.7" y="30.1" transform="matrix(-0.2958 0.9552 -0.9552 -0.2958 241.0778 -110.3405)" fill="#5B2676" width="7" height="7.3"/>
			
				<rect x="166.7" y="25.4" transform="matrix(-0.2958 0.9552 -0.9552 -0.2958 248.2975 -125.0466)" fill="#5B2676" width="7" height="7.3"/>
			
				<rect x="175.7" y="20.6" transform="matrix(-0.2959 0.9552 -0.9552 -0.2959 255.3955 -139.6967)" fill="#5B2676" width="7" height="7.3"/>
			
				<rect x="184.6" y="15.9" transform="matrix(-0.2959 0.9552 -0.9552 -0.2959 262.476 -154.354)" fill="#5B2676" width="7" height="7.3"/>
			
				<rect x="193.7" y="11.1" transform="matrix(-0.2958 0.9552 -0.9552 -0.2958 269.6265 -169.2072)" fill="#5B2676" width="7" height="7.3"/>
			
				<rect x="202.6" y="6.4" transform="matrix(-0.2958 0.9552 -0.9552 -0.2958 276.7053 -183.8643)" fill="#5B2676" width="7" height="7.3"/>
			
				<rect x="211.6" y="1.7" transform="matrix(-0.2958 0.9552 -0.9552 -0.2958 283.7822 -198.5205)" fill="#5B2676" width="7" height="7.3"/>
			<g>
				
					<rect x="153.5" y="43.7" transform="matrix(-0.9552 -0.2959 0.2959 -0.9552 292.8886 138.9201)" fill="#5B2676" width="7" height="7.3"/>
				
					<rect x="158.1" y="52.7" transform="matrix(-0.9552 -0.2959 0.2959 -0.9552 299.2963 157.9411)" fill="#5B2676" width="7" height="7.3"/>
				
					<rect x="162.9" y="61.6" transform="matrix(-0.9552 -0.2959 0.2959 -0.9552 305.9514 176.8767)" fill="#5B2676" width="7" height="7.3"/>
				
					<rect x="167.6" y="70.6" transform="matrix(-0.9552 -0.2959 0.2959 -0.9552 312.6145 195.8134)" fill="#5B2676" width="7" height="7.3"/>
				
					<rect x="172.3" y="79.5" transform="matrix(-0.9552 -0.2959 0.2959 -0.9552 319.1023 214.6687)" fill="#5B2676" width="7" height="7.3"/>
				
					<rect x="177.1" y="88.5" transform="matrix(-0.9552 -0.2959 0.2959 -0.9552 325.757 233.6042)" fill="#5B2676" width="7" height="7.3"/>
			</g>
			<g>
				
					<rect x="216.2" y="10.5" transform="matrix(-0.9552 -0.2959 0.2959 -0.9552 425.4394 92.7337)" fill="#5B2676" width="7" height="7.3"/>
				
					<rect x="221" y="19.6" transform="matrix(-0.9552 -0.2959 0.2959 -0.9552 432.0178 111.8334)" fill="#5B2676" width="7" height="7.3"/>
				
					<rect x="225.6" y="28.5" transform="matrix(-0.9552 -0.2959 0.2959 -0.9552 438.5089 130.6892)" fill="#5B2676" width="7" height="7.3"/>
				
					<rect x="230.4" y="37.5" transform="matrix(-0.9552 -0.2959 0.2959 -0.9552 445.1655 149.6255)" fill="#5B2676" width="7" height="7.3"/>
				
					<rect x="235.2" y="46.5" transform="matrix(-0.9552 -0.2959 0.2959 -0.9552 451.8222 168.5619)" fill="#5B2676" width="7" height="7.3"/>
				
					<rect x="239.9" y="55.4" transform="matrix(-0.9552 -0.2959 0.2959 -0.9552 458.4804 187.497)" fill="#5B2676" width="7" height="7.3"/>
			</g>
			
				<rect x="181.9" y="97.7" transform="matrix(-0.2958 0.9552 -0.9552 -0.2958 337.0298 -45.8067)" fill="#5B2676" width="7" height="7.3"/>
			
				<rect x="190.9" y="92.9" transform="matrix(-0.2958 0.9552 -0.9552 -0.2958 344.0545 -60.6098)" fill="#5B2676" width="7" height="7.3"/>
			
				<rect x="199.8" y="88.2" transform="matrix(-0.2959 0.9552 -0.9552 -0.2959 351.1604 -75.249)" fill="#5B2676" width="7" height="7.3"/>
			
				<rect x="208.8" y="83.4" transform="matrix(-0.2958 0.9552 -0.9552 -0.2958 358.2109 -89.9224)" fill="#5B2676" width="7" height="7.3"/>
			
				<rect x="217.8" y="78.7" transform="matrix(-0.2958 0.9552 -0.9552 -0.2958 365.4359 -104.6251)" fill="#5B2676" width="7" height="7.3"/>
			
				<rect x="226.7" y="74" transform="matrix(-0.2958 0.9552 -0.9552 -0.2958 372.5087 -119.2846)" fill="#5B2676" width="7" height="7.3"/>
			
				<rect x="235.7" y="69.2" transform="matrix(-0.2958 0.9552 -0.9552 -0.2958 379.5439 -134.0805)" fill="#5B2676" width="7" height="7.3"/>
			
				<rect x="244.7" y="64.5" transform="matrix(-0.2958 0.9552 -0.9552 -0.2958 386.7605 -148.7877)" fill="#5B2676" width="7" height="7.3"/>
			
				<rect x="164.7" y="17.6" transform="matrix(-0.8847 0.4662 -0.4662 -0.8847 402.3751 6.9374)" fill="#5B2676" width="71.2" height="71.2"/>
		</g>
		<circle fill="none" stroke="#FFFFFF" stroke-width="4" stroke-miterlimit="10" cx="200.3" cy="53.2" r="27.3"/>
	</g>
	<path fill="#0F1324" d="M233.7,256.3l-39.2-52.3c0,0,13.4-47.1-9.7-79.1s-20.1-28.5-8.2-29.6s33.9,10.6,33.1,31.2
		c0,0-3.1,27,19.2,24.3c22.3-2.6,40.8-33.3,35.5-56.8c-5.2-23.5-17.9-24.1-23.7-37.9c-5.8-13.9-5.2-26.6,9-18
		c14.3,8.6,31.3,29.8,32.7,54.1c1.4,24.3,3.9,52.1,8.2,59c0,0-35,71.8-31.8,100L233.7,256.3z"/>
	<path fill="#0F1324" d="M264.8,201.8c10.5-22.5,35.4-51.4,44-53.1c0,0-2.7-37.9,0.8-50.6s-16-47.8-24.3-49.7s-4.1,24.8,5.6,40.3
		s-6,48.5-6,48.5l-13.3,17.6L264.8,201.8z"/>
	<path fill="#0F1324" d="M274.4,186.9c12.4-22.2,44.5-33,50.7-34.9c0,0,20.3-36.4,25.9-44.7c5.6-8.3-1.7-8.7-11.1-4.4
		c-9.3,4.3-19.4,20.1-17.8,31.1L284,150l-6.5,12.7L274.4,186.9z"/>
</g>
</svg>
