<?xml version="1.0" encoding="utf-8"?>
<!-- Generator: Adobe Illustrator 18.0.0, SVG Export Plug-In . SVG Version: 6.00 Build 0)  -->
<!DOCTYPE svg PUBLIC "-//W3C//DTD SVG 1.1//EN" "http://www.w3.org/Graphics/SVG/1.1/DTD/svg11.dtd">
<svg version="1.1" id="Calque_1" xmlns="http://www.w3.org/2000/svg" xmlns:xlink="http://www.w3.org/1999/xlink" x="0px" y="0px"
	 viewBox="0 0 500 500" enable-background="new 0 0 500 500" xml:space="preserve">
<g>
	
		<rect x="184" y="171" transform="matrix(-0.9472 -0.3206 0.3206 -0.9472 281.7234 719.989)" fill="#0F1324" width="32.3" height="331.6"/>
	<path fill="#0F1324" d="M252.9,150.4c13.8-49.1,67.5-121.5,77.7-132.2c10.2-10.7-7.6-16.7-22.3-3.8c-14.8,13-44.9,57.5-66.1,120.1
		S252.9,150.4,252.9,150.4z"/>
	<path fill="#0F1324" d="M282.3,102.3c11.6,0.7,18.9,5.4,17.9,14.4c0,0,20.8,10,11.7,28.8c-9.1,18.9-36.3,46.8-49.6,65.3
		c-13.2,18.6-25.7-5.5-28.7-15.6"/>
	<path fill="#0F1324" d="M238.4,206c-6.2-15.2-11.8-37.6-26-49.3c0,0,16.3-53.2,5.2-67.7c-11.1-14.6,17.8-10.5,22.3,8.1
		c4.5,18.6-9.4,24.1-3.2,34.8c6.1,10.6,24.6-7,24.4-10c-0.2-2.9,24.1,1.3,24.1,1.3l-9.7,38.8L238.4,206z"/>
	<g>
		<g>
			
				<rect x="270.3" y="1" transform="matrix(-0.9223 0.3864 -0.3864 -0.9223 527.4529 -97.3805)" fill="#5B2676" width="6.5" height="6.7"/>
			
				<rect x="278.9" y="4.5" transform="matrix(-0.9223 0.3864 -0.3864 -0.9223 545.4143 -93.9909)" fill="#5B2676" width="6.5" height="6.7"/>
			
				<rect x="287.5" y="8" transform="matrix(-0.9223 0.3864 -0.3864 -0.9223 563.2262 -90.5079)" fill="#5B2676" width="6.5" height="6.7"/>
			
				<rect x="296.1" y="11.5" transform="matrix(-0.9224 0.3863 -0.3863 -0.9224 581.2243 -87.0762)" fill="#5B2676" width="6.5" height="6.7"/>
			
				<rect x="304.7" y="15.1" transform="matrix(-0.9223 0.3864 -0.3864 -0.9223 599.1024 -83.483)" fill="#5B2676" width="6.5" height="6.7"/>
			
				<rect x="313.3" y="18.6" transform="matrix(-0.9223 0.3864 -0.3864 -0.9223 617.0691 -80.0842)" fill="#5B2676" width="6.5" height="6.7"/>
			
				<rect x="322" y="22.1" transform="matrix(-0.9223 0.3864 -0.3864 -0.9223 635.0219 -76.7113)" fill="#5B2676" width="6.5" height="6.7"/>
			
				<rect x="330.5" y="25.7" transform="matrix(-0.9223 0.3864 -0.3864 -0.9223 652.8423 -73.2128)" fill="#5B2676" width="6.5" height="6.7"/>
			<g>
				
					<rect x="266.7" y="9.5" transform="matrix(-0.3863 -0.9224 0.9224 -0.3863 362.4 266.8226)" fill="#5B2676" width="6.5" height="6.7"/>
				
					<rect x="263.2" y="18.1" transform="matrix(-0.3863 -0.9224 0.9224 -0.3863 349.6365 275.5422)" fill="#5B2676" width="6.5" height="6.7"/>
				
					<rect x="259.7" y="26.8" transform="matrix(-0.3863 -0.9224 0.9224 -0.3863 336.7455 284.2406)" fill="#5B2676" width="6.5" height="6.7"/>
				
					<rect x="256.2" y="35.4" transform="matrix(-0.3863 -0.9224 0.9224 -0.3863 323.9908 292.9622)" fill="#5B2676" width="6.5" height="6.7"/>
				
					<rect x="252.7" y="44" transform="matrix(-0.3863 -0.9224 0.9224 -0.3863 311.0927 301.6577)" fill="#5B2676" width="6.5" height="6.7"/>
				
					<rect x="249.1" y="52.6" transform="matrix(-0.3863 -0.9224 0.9224 -0.3863 298.2001 310.3567)" fill="#5B2676" width="6.5" height="6.7"/>
			</g>
			<g>
				
					<rect x="327" y="34.2" transform="matrix(-0.3864 -0.9223 0.9223 -0.3864 423.2442 356.6429)" fill="#5B2676" width="6.5" height="6.7"/>
				
					<rect x="323.5" y="42.8" transform="matrix(-0.3863 -0.9224 0.9224 -0.3863 410.444 365.353)" fill="#5B2676" width="6.5" height="6.7"/>
				
					<rect x="320" y="51.4" transform="matrix(-0.3864 -0.9223 0.9223 -0.3864 397.6252 374.0376)" fill="#5B2676" width="6.5" height="6.7"/>
				
					<rect x="316.5" y="60" transform="matrix(-0.3864 -0.9223 0.9223 -0.3864 384.8764 382.7651)" fill="#5B2676" width="6.5" height="6.7"/>
				
					<rect x="312.9" y="68.7" transform="matrix(-0.3863 -0.9224 0.9224 -0.3863 371.9062 391.4726)" fill="#5B2676" width="6.5" height="6.7"/>
				
					<rect x="309.4" y="77.3" transform="matrix(-0.3864 -0.9223 0.9223 -0.3864 359.0815 400.162)" fill="#5B2676" width="6.5" height="6.7"/>
			</g>
			
				<rect x="245.6" y="61.3" transform="matrix(-0.9223 0.3864 -0.3864 -0.9223 503.2743 28.005)" fill="#5B2676" width="6.5" height="6.7"/>
			
				<rect x="254.2" y="64.7" transform="matrix(-0.9223 0.3864 -0.3864 -0.9223 521.2357 31.3884)" fill="#5B2676" width="6.5" height="6.7"/>
			
				<rect x="262.8" y="68.3" transform="matrix(-0.9224 0.3863 -0.3863 -0.9224 539.0751 34.9426)" fill="#5B2676" width="6.5" height="6.7"/>
			
				<rect x="271.5" y="71.9" transform="matrix(-0.9223 0.3864 -0.3864 -0.9223 557.1121 38.4135)" fill="#5B2676" width="6.5" height="6.7"/>
			
				<rect x="280" y="75.4" transform="matrix(-0.9223 0.3864 -0.3864 -0.9223 574.9297 41.9196)" fill="#5B2676" width="6.5" height="6.7"/>
			
				<rect x="288.6" y="78.9" transform="matrix(-0.9223 0.3864 -0.3864 -0.9223 592.8903 45.2995)" fill="#5B2676" width="6.5" height="6.7"/>
			
				<rect x="297.3" y="82.4" transform="matrix(-0.9223 0.3864 -0.3864 -0.9223 610.8535 48.6997)" fill="#5B2676" width="6.5" height="6.7"/>
			
				<rect x="305.8" y="85.9" transform="matrix(-0.9223 0.3864 -0.3864 -0.9223 628.6664 52.1675)" fill="#5B2676" width="6.5" height="6.7"/>
			
				<rect x="258.7" y="14.2" transform="matrix(-0.9254 -0.379 0.379 -0.9254 543.2648 200.6927)" fill="#5B2676" width="65.3" height="65.3"/>
		</g>
		<circle fill="none" stroke="#FFFFFF" stroke-width="4" stroke-miterlimit="10" cx="291.4" cy="46.8" r="25"/>
	</g>
	<path fill="#0F1324" d="M265.7,149.3c21.8-46.1,86.8-108.6,98.6-117.4c11.9-8.8-4.7-17.7-21.4-7.5s-53.9,49.2-85.1,107.4
		C226.5,190.1,265.7,149.3,265.7,149.3z"/>
</g>
</svg>
