<?xml version="1.0" encoding="utf-8"?>
<!-- Generator: Adobe Illustrator 18.0.0, SVG Export Plug-In . SVG Version: 6.00 Build 0)  -->
<!DOCTYPE svg PUBLIC "-//W3C//DTD SVG 1.1//EN" "http://www.w3.org/Graphics/SVG/1.1/DTD/svg11.dtd">
<svg version="1.1" id="Calque_1" xmlns="http://www.w3.org/2000/svg" xmlns:xlink="http://www.w3.org/1999/xlink" x="0px" y="0px"
	 viewBox="0 0 500 500" enable-background="new 0 0 500 500" xml:space="preserve">
<g>
	<path fill="#0F1324" d="M390.5,497.9c8.1-4.4,10.9-14.5,6.5-22.6L233.2,176.9c-4.4-8.1-14.5-11-22.5-6.6
		c-8.1,4.4-10.9,14.5-6.5,22.6l163.9,298.4C372.4,499.4,382.5,502.4,390.5,497.9z"/>
	<g>
		<path fill="#0F1324" d="M224.4,210.9c4.1-6.2,23.1-33.9,28.1-47.8c5-13.9,26.6-49.1,38.5-64.9c12-15.8,46.6-38.8,41.7-44.4
			s-32.7,12.7-51.2,30.9c0,0,18.7-33.9,32-43.4c13.5-9.5,21.7-23,12.2-21.9c-9.6,1.1-31.2,18.4-53.4,45.2c0,0,6.7-22.6,16.9-38
			C299.3,11.1,311,2,300.7,0.1c-10.3-1.9-33.9,31.4-41.8,51.1c-8,19.6-11.9,28.7-11.9,28.7L212.5,167L224.4,210.9z"/>
		<path fill="#0F1324" d="M224.4,210.9l-19.7-18.1c0,0-10.6-29.9-33.1-70c0,0,10.1-19.4,8.3-31.3c-1.8-11.9-5.6-21.8,2-19.7
			s28.4,14.1,10.4,37.5c0,0,5.1,8.4,19,9c13.9,0.6,25-13.1,25.4-35.3c0.5-22.3-12.5-30.6-22-30.1c-9.5,0.5-17.2,18-25.1,19.2
			c-8,1.3-10.6-4.1-8.2-14.9s17.9-32.3,42.3-27.6s28.4,32.5,28.1,48.7c-0.3,16.1-18,74.2-18,74.2L224.4,210.9z"/>
	</g>
	<g>
		<g>
			<polygon fill="#5B2676" points="165.7,8 171.3,11.6 175,5.8 169.4,2.3 			"/>
			<polygon fill="#5B2676" points="156.4,9.9 162,13.6 165.6,7.9 160.1,4.2 			"/>
			<polygon fill="#5B2676" points="147.1,12 152.7,15.5 156.3,9.8 150.8,6.2 			"/>
			<polygon fill="#5B2676" points="137.7,13.9 143.3,17.6 147.1,11.9 141.5,8.3 			"/>
			<polygon fill="#5B2676" points="128.5,16 134,19.5 137.7,13.9 132.1,10.2 			"/>
			<polygon fill="#5B2676" points="119.2,18 124.7,21.6 128.4,15.8 122.8,12.3 			"/>
			<polygon fill="#5B2676" points="109.8,19.9 115.4,23.6 119.1,17.9 113.5,14.2 			"/>
			<polygon fill="#5B2676" points="100.5,22 106.1,25.5 109.7,19.8 104.2,16.2 			"/>
			<g>
				<polygon fill="#5B2676" points="173.4,20.7 177,15.2 171.3,11.5 167.7,17.1 				"/>
				<polygon fill="#5B2676" points="175.4,30.2 179,24.6 173.3,20.8 169.7,26.4 				"/>
				<polygon fill="#5B2676" points="177.5,39.5 181,33.9 175.3,30.2 171.7,35.8 				"/>
				<polygon fill="#5B2676" points="179.5,48.8 183.1,43.2 177.3,39.5 173.8,45.1 				"/>
				<polygon fill="#5B2676" points="181.5,58.2 185.1,52.6 179.4,48.8 175.7,54.4 				"/>
				<polygon fill="#5B2676" points="183.5,67.5 187.1,61.9 181.3,58.2 177.8,63.8 				"/>
			</g>
			<g>
				<polygon fill="#5B2676" points="108.2,34.8 111.8,29.2 106.1,25.5 102.5,31 				"/>
				<polygon fill="#5B2676" points="110.2,44.1 113.8,38.5 108.1,34.9 104.5,40.4 				"/>
				<polygon fill="#5B2676" points="112.3,53.4 115.8,47.9 110.1,44.2 106.5,49.7 				"/>
				<polygon fill="#5B2676" points="114.2,62.8 117.9,57.3 112.1,53.5 108.5,59 				"/>
				<polygon fill="#5B2676" points="116.3,72.1 119.8,66.6 114.1,62.9 110.5,68.5 				"/>
				<polygon fill="#5B2676" points="118.3,81.4 121.9,75.9 116.1,72.2 112.6,77.8 				"/>
			</g>
			<polygon fill="#5B2676" points="179.9,73.3 185.5,76.9 189.1,71.2 183.6,67.6 			"/>
			<polygon fill="#5B2676" points="170.5,75.3 176.1,78.9 179.8,73.2 174.3,69.5 			"/>
			<polygon fill="#5B2676" points="161.2,77.3 166.8,80.9 170.4,75.1 164.9,71.6 			"/>
			<polygon fill="#5B2676" points="152,79.4 157.5,82.9 161.2,77.2 155.6,73.6 			"/>
			<polygon fill="#5B2676" points="142.6,81.3 148.1,85 151.9,79.2 146.3,75.6 			"/>
			<polygon fill="#5B2676" points="133.3,83.3 138.8,86.9 142.5,81.2 136.9,77.6 			"/>
			<polygon fill="#5B2676" points="124,85.4 129.6,88.9 133.2,83.2 127.6,79.6 			"/>
			<polygon fill="#5B2676" points="114.6,87.3 120.2,91 123.9,85.2 118.4,81.6 			"/>
			<polygon fill="#5B2676" points="119.1,86.3 184.5,72.3 170.2,6.9 104.9,20.8 			"/>
		</g>
		<path fill="none" stroke="#FFFFFF" stroke-width="4" stroke-miterlimit="10" d="M169.7,41.2c3,13.9-5.8,27.6-19.6,30.6
			c-13.9,2.9-27.5-5.9-30.6-19.7s5.8-27.6,19.6-30.6C153.1,18.4,166.8,27.3,169.7,41.2z"/>
	</g>
</g>
</svg>
