<?xml version="1.0" encoding="utf-8"?>
<!-- Generator: Adobe Illustrator 18.0.0, SVG Export Plug-In . SVG Version: 6.00 Build 0)  -->
<!DOCTYPE svg PUBLIC "-//W3C//DTD SVG 1.1//EN" "http://www.w3.org/Graphics/SVG/1.1/DTD/svg11.dtd">
<svg version="1.1" id="Calque_1" xmlns="http://www.w3.org/2000/svg" xmlns:xlink="http://www.w3.org/1999/xlink" x="0px" y="0px"
	 viewBox="0 0 500 500" enable-background="new 0 0 500 500" xml:space="preserve">
<rect x="287.5" y="172.8" transform="matrix(-0.874 0.4859 -0.4859 -0.874 736.13 494.0346)" fill="#0F1324" width="33.1" height="339.3"/>
<path fill="#0F1324" d="M199.1,174.2C171.3,130,153.4,39.5,152.3,24.4s-17.8-5.8-18.2,14.3c-0.4,20.1,12.7,73.6,45.5,132.7
	S199.1,174.2,199.1,174.2z"/>
<path fill="#0F1324" d="M182.8,119c8.6-8.3,17.1-10.6,23.2-3.7c0,0,21.9-8.9,29.9,11c8.1,19.8,10.5,59.7,15.4,82.5
	c4.9,22.8-21.8,15.7-31.6,11"/>
<path fill="#0F1324" d="M231.3,223.6c-15.8-5.7-36.6-16.9-55.2-14.2c0,0-29.1-48.9-47.7-50.6c-18.6-1.6,4.3-20.7,21.5-11.3
	c17.2,9.4,11.9,23.7,24.1,26.4c12.2,2.7,11.6-23.5,9.3-25.4c-2.3-1.9,17.5-17.3,17.5-17.3l22.7,34.1L231.3,223.6z"/>
<g>
	<g>
		
			<rect x="99.3" y="54.8" transform="matrix(-0.3338 0.9427 -0.9427 -0.3338 191.6697 -19.0728)" fill="#5B2676" width="6.6" height="6.8"/>
		
			<rect x="107.9" y="50.7" transform="matrix(-0.3338 0.9427 -0.9427 -0.3338 199.2655 -32.6968)" fill="#5B2676" width="6.6" height="6.8"/>
		
			<rect x="116.5" y="46.6" transform="matrix(-0.3338 0.9426 -0.9426 -0.3338 206.8868 -46.2126)" fill="#5B2676" width="6.6" height="6.8"/>
		
			<rect x="125" y="42.5" transform="matrix(-0.3339 0.9426 -0.9426 -0.3339 214.3982 -59.8017)" fill="#5B2676" width="6.6" height="6.8"/>
		
			<rect x="133.6" y="38.4" transform="matrix(-0.3338 0.9426 -0.9426 -0.3338 222.0107 -73.3319)" fill="#5B2676" width="6.6" height="6.8"/>
		
			<rect x="142.2" y="34.3" transform="matrix(-0.3338 0.9427 -0.9427 -0.3338 229.6064 -86.9662)" fill="#5B2676" width="6.6" height="6.8"/>
		
			<rect x="150.8" y="30.2" transform="matrix(-0.3338 0.9426 -0.9426 -0.3338 237.231 -100.4791)" fill="#5B2676" width="6.6" height="6.8"/>
		
			<rect x="159.4" y="26.1" transform="matrix(-0.3338 0.9426 -0.9426 -0.3338 244.831 -114.1012)" fill="#5B2676" width="6.6" height="6.8"/>
		<g>
			
				<rect x="103.3" y="63.3" transform="matrix(-0.9426 -0.3339 0.3339 -0.9426 184.8923 165.1668)" fill="#5B2676" width="6.6" height="6.8"/>
			
				<rect x="107.4" y="71.9" transform="matrix(-0.9426 -0.3338 0.3338 -0.9426 190.0222 183.163)" fill="#5B2676" width="6.6" height="6.8"/>
			
				<rect x="111.5" y="80.5" transform="matrix(-0.9426 -0.3339 0.3339 -0.9426 195.0533 201.2867)" fill="#5B2676" width="6.6" height="6.8"/>
			
				<rect x="115.6" y="89" transform="matrix(-0.9426 -0.3339 0.3339 -0.9426 200.1613 219.2917)" fill="#5B2676" width="6.6" height="6.8"/>
			
				<rect x="119.7" y="97.7" transform="matrix(-0.9426 -0.3339 0.3339 -0.9426 205.2123 237.4064)" fill="#5B2676" width="6.6" height="6.8"/>
			
				<rect x="123.8" y="106.2" transform="matrix(-0.9426 -0.3339 0.3339 -0.9426 210.3298 255.4142)" fill="#5B2676" width="6.6" height="6.8"/>
		</g>
		<g>
			
				<rect x="163.5" y="34.6" transform="matrix(-0.9426 -0.3338 0.3338 -0.9426 311.3327 129.4285)" fill="#5B2676" width="6.6" height="6.8"/>
			
				<rect x="167.6" y="43.2" transform="matrix(-0.9426 -0.3338 0.3338 -0.9426 316.3882 147.5417)" fill="#5B2676" width="6.6" height="6.8"/>
			
				<rect x="171.7" y="51.8" transform="matrix(-0.9426 -0.3338 0.3338 -0.9426 321.4973 165.5503)" fill="#5B2676" width="6.6" height="6.8"/>
			
				<rect x="175.8" y="60.4" transform="matrix(-0.9426 -0.3338 0.3338 -0.9426 326.6596 183.7247)" fill="#5B2676" width="6.6" height="6.8"/>
			
				<rect x="179.9" y="69" transform="matrix(-0.9426 -0.3339 0.3339 -0.9426 331.7561 201.7546)" fill="#5B2676" width="6.6" height="6.8"/>
			
				<rect x="184" y="77.6" transform="matrix(-0.9426 -0.3338 0.3338 -0.9426 336.8272 219.8447)" fill="#5B2676" width="6.6" height="6.8"/>
		</g>
		
			<rect x="127.9" y="114.9" transform="matrix(-0.3338 0.9426 -0.9426 -0.3338 286.5994 34.1276)" fill="#5B2676" width="6.6" height="6.8"/>
		
			<rect x="136.5" y="110.9" transform="matrix(-0.3338 0.9426 -0.9426 -0.3338 294.2224 20.5996)" fill="#5B2676" width="6.6" height="6.8"/>
		
			<rect x="145.1" y="106.7" transform="matrix(-0.3338 0.9426 -0.9426 -0.3338 301.8163 6.9736)" fill="#5B2676" width="6.6" height="6.8"/>
		
			<rect x="153.7" y="102.7" transform="matrix(-0.3338 0.9426 -0.9426 -0.3338 309.4444 -6.546)" fill="#5B2676" width="6.6" height="6.8"/>
		
			<rect x="162.4" y="98.5" transform="matrix(-0.3338 0.9427 -0.9427 -0.3338 317.0524 -20.1855)" fill="#5B2676" width="6.6" height="6.8"/>
		
			<rect x="170.9" y="94.5" transform="matrix(-0.3338 0.9426 -0.9426 -0.3338 324.67 -33.6893)" fill="#5B2676" width="6.6" height="6.8"/>
		
			<rect x="179.6" y="90.3" transform="matrix(-0.3338 0.9427 -0.9427 -0.3338 332.2721 -47.3341)" fill="#5B2676" width="6.6" height="6.8"/>
		
			<rect x="188.1" y="86.3" transform="matrix(-0.3338 0.9426 -0.9426 -0.3338 339.8874 -60.8388)" fill="#5B2676" width="6.6" height="6.8"/>
		
			<rect x="113.7" y="40.4" transform="matrix(-0.9026 0.4305 -0.4305 -0.9026 311.7087 77.133)" fill="#5B2676" width="66.8" height="66.8"/>
	</g>
	<circle fill="none" stroke="#FFFFFF" stroke-width="4" stroke-miterlimit="10" cx="147.1" cy="73.8" r="25.6"/>
</g>
<path fill="#0F1324" d="M207.1,163.8C187,115.6,184.5,23.4,186,8.3s-16.6-8.6-20.3,11.1c-3.7,19.7,0.2,74.6,22.8,138.4
	C211,221.5,207.1,163.8,207.1,163.8z"/>
</svg>
