<?xml version="1.0" encoding="utf-8"?>

<svg version="1.1" id="Calque_5" xmlns="http://www.w3.org/2000/svg" 
	 viewBox="0 0 128 145.4">
<path fill="#B33500" d="M64.5,145.8l-10.2-17.8l-10.3-17.8h41.1l-10.3,17.8L64.5,145.8z"/>
<circle fill="#B33500" cx="64.5" cy="64.2" r="64.2"/>
<path fill="#FFFFFF" d="M95.4,48.8c0-17-13.7-30.7-30.6-30.7c-17,0-30.7,13.8-30.7,30.7c0,15.6,11.7,28.5,26.9,30.3v9.4H49.1v7.8H61
	v11.9h7.8V96.4h11.7v-7.7H68.8v-9.4C83.7,77.3,95.4,64.5,95.4,48.8L95.4,48.8z M43.2,48.8c0-11.8,9.7-21.5,21.5-21.5
	S86.3,37,86.3,48.8c0.1,11.8-9.6,21.5-21.4,21.5C52.9,70.4,43.2,60.8,43.2,48.8L43.2,48.8z"/>
</svg>
